<svg width="79" height="89" viewBox="0 0 79 89" fill="none" xmlns="http://www.w3.org/2000/svg">
<path d="M8.36364 10.8131C10.4545 24.8855 7.06325 36.0466 0 52C12.6901 37.4184 23 25.5715 23 10.8131C23 -3.94528 6.27273 -3.2593 8.36364 10.8131Z" fill="#18FFB0"/>
<path d="M39.3933 26.5763C35.3851 40.2726 26.6126 48.0626 11.0006 57.5629C29.6728 53.2462 44.7431 49.1275 51.9365 34.119C59.1299 19.1105 43.4015 12.88 39.3933 26.5763Z" fill="#18FFB0"/>
<path d="M61.5366 54.7645C50.5994 63.863 39.3012 66.7647 22.0004 69.0192C41.0529 72.2852 56.5319 74.9384 69.1416 67.2699C81.7514 59.6015 72.4738 45.6659 61.5366 54.7645Z" fill="#18FFB0"/>
</svg>
