<svg width="22" height="22" viewBox="0 0 22 22" fill="none" xmlns="http://www.w3.org/2000/svg">
<path d="M17.2646 2.97363L0.838834 19.3994C0.604444 19.6338 0.472765 19.9517 0.472765 20.2832C0.472765 20.6147 0.604444 20.9326 0.838834 21.167C1.07323 21.4014 1.39113 21.533 1.72261 21.533C2.05409 21.533 2.37199 21.4014 2.60638 21.167L19.0322 4.74118L19.0304 17.6319C19.0304 17.9638 19.1622 18.2821 19.3969 18.5168C19.6316 18.7514 19.9499 18.8833 20.2818 18.8833C20.6137 18.8833 20.932 18.7514 21.1667 18.5168C21.4014 18.2821 21.5332 17.9638 21.5332 17.6319V1.72398C21.5334 1.55958 21.5012 1.39676 21.4384 1.24483C21.3756 1.09291 21.2834 0.954874 21.1672 0.838627C21.0509 0.722381 20.9129 0.630211 20.761 0.567394C20.609 0.504578 20.4462 0.47235 20.2818 0.472557L4.37392 0.472558C4.04202 0.472558 3.72372 0.604404 3.48903 0.839091C3.25435 1.07378 3.1225 1.39208 3.1225 1.72398C3.1225 2.05588 3.25435 2.37418 3.48903 2.60887C3.72372 2.84355 4.04202 2.9754 4.37392 2.9754L17.2646 2.97363Z" fill="#7AA9D9"/>
</svg>
