<svg width="880" height="947" viewBox="0 0 880 947" fill="none" xmlns="http://www.w3.org/2000/svg">
<g filter="url(#filter0_f_112_397)">
<path fill-rule="evenodd" clip-rule="evenodd" d="M338.298 179.468C376.728 191.518 417.012 172.143 456.675 179.138C516.861 189.753 615.33 171.068 628.75 230.692C643.72 297.202 520.345 321.031 503.479 387.086C489.629 441.331 560.344 490.694 548.398 545.389C534.751 607.872 499.806 700.366 435.995 696.062C360.407 690.964 358.983 559.192 289.961 527.959C236.58 503.805 169.859 582.923 119.56 552.874C73.475 525.343 79.8553 454.491 77.2296 400.873C74.7881 351.016 92.34 305.089 105.062 256.821C120.612 197.825 102.267 105.38 160.176 86.1739C225.109 64.6388 273.021 159.001 338.298 179.468Z" fill="#052543"/>
</g>
<defs>
<filter id="filter0_f_112_397" x="-173" y="-167" width="1053.01" height="1113.21" filterUnits="userSpaceOnUse" color-interpolation-filters="sRGB">
<feFlood flood-opacity="0" result="BackgroundImageFix"/>
<feBlend mode="normal" in="SourceGraphic" in2="BackgroundImageFix" result="shape"/>
<feGaussianBlur stdDeviation="125" result="effect1_foregroundBlur_112_397"/>
</filter>
</defs>
</svg>
