<svg width="405" height="56" viewBox="0 0 405 56" fill="none" xmlns="http://www.w3.org/2000/svg">
<path d="M6.138 1.556C8.74867 1.556 10.758 2.238 12.166 3.602C13.5887 4.966 14.3 6.86533 14.3 9.3C14.3 11.7347 13.5887 13.6267 12.166 14.976C10.758 16.3253 8.74867 17 6.138 17H1.804V1.556H6.138ZM6.138 16.164C8.47 16.164 10.2447 15.5627 11.462 14.36C12.6793 13.1427 13.288 11.456 13.288 9.3C13.288 7.12933 12.6793 5.43533 11.462 4.218C10.2447 3.00067 8.47 2.392 6.138 2.392H2.794V16.164H6.138ZM28.0522 10.224C28.0522 10.752 28.0376 11.148 28.0082 11.412H17.6902C17.7196 12.4827 17.9542 13.3847 18.3942 14.118C18.8342 14.8513 19.4136 15.4013 20.1322 15.768C20.8509 16.1347 21.6356 16.318 22.4862 16.318C23.6596 16.318 24.6422 16.032 25.4342 15.46C26.2262 14.8733 26.7249 14.0813 26.9302 13.084H27.9642C27.7296 14.3013 27.1282 15.2913 26.1602 16.054C25.1922 16.802 23.9676 17.176 22.4862 17.176C21.3716 17.176 20.3742 16.9267 19.4942 16.428C18.6142 15.9293 17.9249 15.218 17.4262 14.294C16.9276 13.3553 16.6782 12.2627 16.6782 11.016C16.6782 9.76933 16.9202 8.684 17.4042 7.76C17.9029 6.836 18.5922 6.132 19.4722 5.648C20.3522 5.14933 21.3569 4.9 22.4862 4.9C23.6302 4.9 24.6202 5.14933 25.4562 5.648C26.3069 6.132 26.9522 6.78467 27.3922 7.606C27.8322 8.41267 28.0522 9.28533 28.0522 10.224ZM27.0622 10.598C27.1062 9.542 26.9156 8.64733 26.4902 7.914C26.0796 7.18067 25.5149 6.638 24.7962 6.286C24.0776 5.91933 23.3002 5.736 22.4642 5.736C21.6282 5.736 20.8509 5.91933 20.1322 6.286C19.4282 6.638 18.8489 7.18067 18.3942 7.914C17.9542 8.64733 17.7196 9.542 17.6902 10.598H27.0622ZM35.0262 17.176C33.6916 17.176 32.5989 16.8827 31.7482 16.296C30.9122 15.7093 30.4429 14.8733 30.3402 13.788H31.3522C31.4256 14.5653 31.7776 15.1813 32.4082 15.636C33.0536 16.0907 33.9262 16.318 35.0262 16.318C35.9356 16.318 36.6542 16.0907 37.1822 15.636C37.7249 15.1667 37.9962 14.5947 37.9962 13.92C37.9962 13.4507 37.8496 13.0693 37.5562 12.776C37.2776 12.468 36.9256 12.2333 36.5002 12.072C36.0749 11.9107 35.4956 11.7347 34.7622 11.544C33.8822 11.3093 33.1709 11.082 32.6282 10.862C32.0856 10.6273 31.6236 10.2827 31.2422 9.828C30.8609 9.37333 30.6702 8.76467 30.6702 8.002C30.6702 7.44467 30.8389 6.93133 31.1762 6.462C31.5136 5.978 31.9829 5.59667 32.5842 5.318C33.1856 5.03933 33.8676 4.9 34.6302 4.9C35.8769 4.9 36.8816 5.21533 37.6442 5.846C38.4216 6.462 38.8396 7.32 38.8982 8.42H37.9082C37.8642 7.628 37.5562 6.98267 36.9842 6.484C36.4122 5.98533 35.6202 5.736 34.6082 5.736C33.7576 5.736 33.0536 5.956 32.4962 6.396C31.9389 6.836 31.6602 7.37133 31.6602 8.002C31.6602 8.55933 31.8142 9.014 32.1222 9.366C32.4449 9.70333 32.8336 9.96733 33.2882 10.158C33.7576 10.334 34.3736 10.5247 35.1362 10.73C35.9722 10.95 36.6396 11.17 37.1382 11.39C37.6516 11.5953 38.0842 11.9033 38.4362 12.314C38.7882 12.71 38.9642 13.2453 38.9642 13.92C38.9642 14.536 38.7956 15.0933 38.4582 15.592C38.1209 16.0907 37.6516 16.4793 37.0502 16.758C36.4489 17.0367 35.7742 17.176 35.0262 17.176ZM42.4858 2.392C42.2511 2.392 42.0531 2.31867 41.8918 2.172C41.7304 2.01067 41.6498 1.798 41.6498 1.534C41.6498 1.28467 41.7304 1.07933 41.8918 0.918C42.0531 0.756666 42.2511 0.675999 42.4858 0.675999C42.7204 0.675999 42.9184 0.756666 43.0798 0.918C43.2411 1.07933 43.3218 1.28467 43.3218 1.534C43.3218 1.798 43.2411 2.01067 43.0798 2.172C42.9184 2.31867 42.7204 2.392 42.4858 2.392ZM42.9698 5.054V17H41.9798V5.054H42.9698ZM51.7469 4.9C53.0083 4.9 54.0789 5.208 54.9589 5.824C55.8389 6.42533 56.4549 7.20267 56.8069 8.156V5.054H57.7969V17.374C57.7969 18.474 57.5549 19.4347 57.0709 20.256C56.5869 21.092 55.9343 21.73 55.1129 22.17C54.2916 22.6247 53.3749 22.852 52.3629 22.852C50.8669 22.852 49.6276 22.4927 48.6449 21.774C47.6623 21.0553 47.0169 20.0873 46.7089 18.87H47.6989C47.9923 19.8233 48.5423 20.5787 49.3489 21.136C50.1556 21.708 51.1603 21.994 52.3629 21.994C53.1989 21.994 53.9543 21.8033 54.6289 21.422C55.3036 21.0553 55.8316 20.52 56.2129 19.816C56.6089 19.1267 56.8069 18.3127 56.8069 17.374V13.876C56.4549 14.8293 55.8316 15.6213 54.9369 16.252C54.0569 16.868 52.9936 17.176 51.7469 17.176C50.6323 17.176 49.6349 16.9267 48.7549 16.428C47.8896 15.9147 47.2076 15.196 46.7089 14.272C46.2249 13.3333 45.9829 12.248 45.9829 11.016C45.9829 9.784 46.2249 8.706 46.7089 7.782C47.2076 6.858 47.8896 6.14667 48.7549 5.648C49.6349 5.14933 50.6323 4.9 51.7469 4.9ZM56.8069 11.016C56.8069 9.97467 56.5869 9.058 56.1469 8.266C55.7216 7.45933 55.1349 6.84333 54.3869 6.418C53.6389 5.978 52.8029 5.758 51.8789 5.758C50.9109 5.758 50.0603 5.97067 49.3269 6.396C48.5936 6.80667 48.0216 7.408 47.6109 8.2C47.2003 8.992 46.9949 9.93067 46.9949 11.016C46.9949 12.1013 47.2003 13.04 47.6109 13.832C48.0216 14.624 48.5936 15.2327 49.3269 15.658C50.0749 16.0833 50.9256 16.296 51.8789 16.296C52.8029 16.296 53.6389 16.0833 54.3869 15.658C55.1496 15.218 55.7436 14.602 56.1689 13.81C56.5943 13.0033 56.8069 12.072 56.8069 11.016ZM66.7917 4.812C68.2143 4.812 69.373 5.252 70.2677 6.132C71.1623 6.99733 71.6097 8.288 71.6097 10.004V17H70.6417V10.07C70.6417 8.64733 70.2823 7.562 69.5637 6.814C68.845 6.05133 67.8697 5.67 66.6377 5.67C65.347 5.67 64.313 6.08067 63.5357 6.902C62.773 7.72333 62.3917 8.94067 62.3917 10.554V17H61.4017V5.054H62.3917V7.584C62.729 6.68933 63.2863 6.00733 64.0637 5.538C64.8557 5.054 65.765 4.812 66.7917 4.812ZM81.8237 2.392C81.589 2.392 81.391 2.31867 81.2297 2.172C81.0683 2.01067 80.9877 1.798 80.9877 1.534C80.9877 1.28467 81.0683 1.07933 81.2297 0.918C81.391 0.756666 81.589 0.675999 81.8237 0.675999C82.0583 0.675999 82.2563 0.756666 82.4177 0.918C82.579 1.07933 82.6597 1.28467 82.6597 1.534C82.6597 1.798 82.579 2.01067 82.4177 2.172C82.2563 2.31867 82.0583 2.392 81.8237 2.392ZM82.3077 5.054V17H81.3177V5.054H82.3077ZM89.9188 17.176C88.5841 17.176 87.4915 16.8827 86.6408 16.296C85.8048 15.7093 85.3355 14.8733 85.2328 13.788H86.2448C86.3181 14.5653 86.6701 15.1813 87.3008 15.636C87.9461 16.0907 88.8188 16.318 89.9188 16.318C90.8281 16.318 91.5468 16.0907 92.0748 15.636C92.6175 15.1667 92.8888 14.5947 92.8888 13.92C92.8888 13.4507 92.7421 13.0693 92.4488 12.776C92.1701 12.468 91.8181 12.2333 91.3928 12.072C90.9675 11.9107 90.3881 11.7347 89.6548 11.544C88.7748 11.3093 88.0635 11.082 87.5208 10.862C86.9781 10.6273 86.5161 10.2827 86.1348 9.828C85.7535 9.37333 85.5628 8.76467 85.5628 8.002C85.5628 7.44467 85.7315 6.93133 86.0688 6.462C86.4061 5.978 86.8755 5.59667 87.4768 5.318C88.0781 5.03933 88.7601 4.9 89.5228 4.9C90.7695 4.9 91.7741 5.21533 92.5368 5.846C93.3141 6.462 93.7321 7.32 93.7908 8.42H92.8008C92.7568 7.628 92.4488 6.98267 91.8768 6.484C91.3048 5.98533 90.5128 5.736 89.5008 5.736C88.6501 5.736 87.9461 5.956 87.3888 6.396C86.8315 6.836 86.5528 7.37133 86.5528 8.002C86.5528 8.55933 86.7068 9.014 87.0148 9.366C87.3375 9.70333 87.7261 9.96733 88.1808 10.158C88.6501 10.334 89.2661 10.5247 90.0288 10.73C90.8648 10.95 91.5321 11.17 92.0308 11.39C92.5441 11.5953 92.9768 11.9033 93.3288 12.314C93.6808 12.71 93.8568 13.2453 93.8568 13.92C93.8568 14.536 93.6881 15.0933 93.3508 15.592C93.0135 16.0907 92.5441 16.4793 91.9428 16.758C91.3415 17.0367 90.6668 17.176 89.9188 17.176ZM108.471 4.812C109.894 4.812 111.053 5.252 111.947 6.132C112.842 6.99733 113.289 8.288 113.289 10.004V17H112.321V10.07C112.321 8.64733 111.962 7.562 111.243 6.814C110.525 6.05133 109.549 5.67 108.317 5.67C107.027 5.67 105.993 6.08067 105.215 6.902C104.453 7.72333 104.071 8.94067 104.071 10.554V17H103.081V5.054H104.071V7.584C104.409 6.68933 104.966 6.00733 105.743 5.538C106.535 5.054 107.445 4.812 108.471 4.812ZM122.046 17.176C120.932 17.176 119.927 16.9267 119.032 16.428C118.138 15.9293 117.434 15.218 116.92 14.294C116.422 13.3553 116.172 12.2627 116.172 11.016C116.172 9.784 116.429 8.706 116.942 7.782C117.456 6.84333 118.16 6.132 119.054 5.648C119.964 5.14933 120.976 4.9 122.09 4.9C123.205 4.9 124.21 5.14933 125.104 5.648C125.999 6.132 126.696 6.836 127.194 7.76C127.708 8.684 127.964 9.76933 127.964 11.016C127.964 12.2627 127.708 13.3553 127.194 14.294C126.681 15.218 125.97 15.9293 125.06 16.428C124.166 16.9267 123.161 17.176 122.046 17.176ZM122.046 16.296C122.912 16.296 123.718 16.1053 124.466 15.724C125.229 15.328 125.838 14.734 126.292 13.942C126.747 13.15 126.974 12.1747 126.974 11.016C126.974 9.872 126.747 8.904 126.292 8.112C125.838 7.32 125.236 6.73333 124.488 6.352C123.74 5.956 122.934 5.758 122.068 5.758C121.203 5.758 120.396 5.956 119.648 6.352C118.915 6.73333 118.321 7.32 117.866 8.112C117.412 8.904 117.184 9.872 117.184 11.016C117.184 12.1747 117.404 13.15 117.844 13.942C118.299 14.734 118.893 15.328 119.626 15.724C120.374 16.1053 121.181 16.296 122.046 16.296ZM132.442 5.912V13.81C132.442 14.69 132.603 15.2987 132.926 15.636C133.249 15.9587 133.821 16.12 134.642 16.12H135.984V17H134.488C133.447 17 132.677 16.758 132.178 16.274C131.694 15.7753 131.452 14.954 131.452 13.81V5.912H129.648V5.054H131.452V2.018H132.442V5.054H135.984V5.912H132.442ZM145.464 2.392C145.229 2.392 145.031 2.31867 144.87 2.172C144.709 2.01067 144.628 1.798 144.628 1.534C144.628 1.28467 144.709 1.07933 144.87 0.918C145.031 0.756666 145.229 0.675999 145.464 0.675999C145.699 0.675999 145.897 0.756666 146.058 0.918C146.234 1.07933 146.322 1.28467 146.322 1.534C146.322 1.78333 146.234 1.98867 146.058 2.15C145.897 2.31133 145.699 2.392 145.464 2.392ZM145.97 20.08C145.97 20.9307 145.757 21.5687 145.332 21.994C144.921 22.4193 144.261 22.632 143.352 22.632H142.428V21.752H143.242C143.858 21.752 144.298 21.62 144.562 21.356C144.841 21.1067 144.98 20.652 144.98 19.992V5.054H145.97V20.08ZM159.672 5.054V17H158.682V14.404C158.344 15.3133 157.78 16.01 156.988 16.494C156.21 16.9633 155.316 17.198 154.304 17.198C152.881 17.198 151.715 16.7653 150.806 15.9C149.911 15.02 149.464 13.722 149.464 12.006V5.054H150.432V11.94C150.432 13.3627 150.791 14.4553 151.51 15.218C152.228 15.966 153.204 16.34 154.436 16.34C155.726 16.34 156.753 15.9293 157.516 15.108C158.293 14.2867 158.682 13.0693 158.682 11.456V5.054H159.672ZM167.263 17.176C165.928 17.176 164.835 16.8827 163.985 16.296C163.149 15.7093 162.679 14.8733 162.577 13.788H163.589C163.662 14.5653 164.014 15.1813 164.645 15.636C165.29 16.0907 166.163 16.318 167.263 16.318C168.172 16.318 168.891 16.0907 169.419 15.636C169.961 15.1667 170.233 14.5947 170.233 13.92C170.233 13.4507 170.086 13.0693 169.793 12.776C169.514 12.468 169.162 12.2333 168.737 12.072C168.311 11.9107 167.732 11.7347 166.999 11.544C166.119 11.3093 165.407 11.082 164.865 10.862C164.322 10.6273 163.86 10.2827 163.479 9.828C163.097 9.37333 162.907 8.76467 162.907 8.002C162.907 7.44467 163.075 6.93133 163.413 6.462C163.75 5.978 164.219 5.59667 164.821 5.318C165.422 5.03933 166.104 4.9 166.867 4.9C168.113 4.9 169.118 5.21533 169.881 5.846C170.658 6.462 171.076 7.32 171.135 8.42H170.145C170.101 7.628 169.793 6.98267 169.221 6.484C168.649 5.98533 167.857 5.736 166.845 5.736C165.994 5.736 165.29 5.956 164.733 6.396C164.175 6.836 163.897 7.37133 163.897 8.002C163.897 8.55933 164.051 9.014 164.359 9.366C164.681 9.70333 165.07 9.96733 165.525 10.158C165.994 10.334 166.61 10.5247 167.373 10.73C168.209 10.95 168.876 11.17 169.375 11.39C169.888 11.5953 170.321 11.9033 170.673 12.314C171.025 12.71 171.201 13.2453 171.201 13.92C171.201 14.536 171.032 15.0933 170.695 15.592C170.357 16.0907 169.888 16.4793 169.287 16.758C168.685 17.0367 168.011 17.176 167.263 17.176ZM175.69 5.912V13.81C175.69 14.69 175.851 15.2987 176.174 15.636C176.497 15.9587 177.069 16.12 177.89 16.12H179.232V17H177.736C176.695 17 175.925 16.758 175.426 16.274C174.942 15.7753 174.7 14.954 174.7 13.81V5.912H172.896V5.054H174.7V2.018H175.69V5.054H179.232V5.912H175.69ZM203.672 5.054L199.91 17H198.964L195.158 6.418L191.33 17H190.384L186.622 5.054H187.656L190.868 15.878L194.696 5.054H195.642L199.448 15.834L202.66 5.054H203.672ZM211.253 4.812C212.661 4.812 213.812 5.252 214.707 6.132C215.602 6.99733 216.049 8.288 216.049 10.004V17H215.081V10.07C215.081 8.64733 214.722 7.562 214.003 6.814C213.284 6.05133 212.309 5.67 211.077 5.67C209.786 5.67 208.752 6.08067 207.975 6.902C207.212 7.72333 206.831 8.94067 206.831 10.554V17H205.841V0.72H206.831V7.584C207.168 6.68933 207.733 6.00733 208.525 5.538C209.317 5.054 210.226 4.812 211.253 4.812ZM218.932 11.016C218.932 9.784 219.174 8.706 219.658 7.782C220.157 6.858 220.839 6.14667 221.704 5.648C222.584 5.14933 223.581 4.9 224.696 4.9C225.957 4.9 227.028 5.208 227.908 5.824C228.788 6.44 229.404 7.22467 229.756 8.178V5.054H230.746V17H229.756V13.854C229.404 14.822 228.781 15.6213 227.886 16.252C227.006 16.868 225.943 17.176 224.696 17.176C223.581 17.176 222.584 16.9267 221.704 16.428C220.839 15.9147 220.157 15.196 219.658 14.272C219.174 13.3333 218.932 12.248 218.932 11.016ZM229.756 11.016C229.756 9.97467 229.536 9.058 229.096 8.266C228.671 7.45933 228.084 6.84333 227.336 6.418C226.588 5.978 225.752 5.758 224.828 5.758C223.86 5.758 223.009 5.97067 222.276 6.396C221.543 6.80667 220.971 7.408 220.56 8.2C220.149 8.992 219.944 9.93067 219.944 11.016C219.944 12.1013 220.149 13.04 220.56 13.832C220.971 14.624 221.543 15.2327 222.276 15.658C223.024 16.0833 223.875 16.296 224.828 16.296C225.752 16.296 226.588 16.0833 227.336 15.658C228.099 15.218 228.693 14.602 229.118 13.81C229.543 13.0033 229.756 12.072 229.756 11.016ZM235.825 5.912V13.81C235.825 14.69 235.986 15.2987 236.309 15.636C236.632 15.9587 237.204 16.12 238.025 16.12H239.367V17H237.871C236.83 17 236.06 16.758 235.561 16.274C235.077 15.7753 234.835 14.954 234.835 13.81V5.912H233.031V5.054H234.835V2.018H235.825V5.054H239.367V5.912H235.825ZM248.693 2.392C248.458 2.392 248.26 2.31867 248.099 2.172C247.937 2.01067 247.857 1.798 247.857 1.534C247.857 1.28467 247.937 1.07933 248.099 0.918C248.26 0.756666 248.458 0.675999 248.693 0.675999C248.927 0.675999 249.125 0.756666 249.287 0.918C249.448 1.07933 249.529 1.28467 249.529 1.534C249.529 1.798 249.448 2.01067 249.287 2.172C249.125 2.31867 248.927 2.392 248.693 2.392ZM249.177 5.054V17H248.187V5.054H249.177ZM254.28 5.912V13.81C254.28 14.69 254.441 15.2987 254.764 15.636C255.087 15.9587 255.659 16.12 256.48 16.12H257.822V17H256.326C255.285 17 254.515 16.758 254.016 16.274C253.532 15.7753 253.29 14.954 253.29 13.81V5.912H251.486V5.054H253.29V2.018H254.28V5.054H257.822V5.912H254.28ZM267.632 0.72V17H266.642V0.72H267.632ZM276.519 17.176C275.404 17.176 274.4 16.9267 273.505 16.428C272.61 15.9293 271.906 15.218 271.393 14.294C270.894 13.3553 270.645 12.2627 270.645 11.016C270.645 9.784 270.902 8.706 271.415 7.782C271.928 6.84333 272.632 6.132 273.527 5.648C274.436 5.14933 275.448 4.9 276.563 4.9C277.678 4.9 278.682 5.14933 279.577 5.648C280.472 6.132 281.168 6.836 281.667 7.76C282.18 8.684 282.437 9.76933 282.437 11.016C282.437 12.2627 282.18 13.3553 281.667 14.294C281.154 15.218 280.442 15.9293 279.533 16.428C278.638 16.9267 277.634 17.176 276.519 17.176ZM276.519 16.296C277.384 16.296 278.191 16.1053 278.939 15.724C279.702 15.328 280.31 14.734 280.765 13.942C281.22 13.15 281.447 12.1747 281.447 11.016C281.447 9.872 281.22 8.904 280.765 8.112C280.31 7.32 279.709 6.73333 278.961 6.352C278.213 5.956 277.406 5.758 276.541 5.758C275.676 5.758 274.869 5.956 274.121 6.352C273.388 6.73333 272.794 7.32 272.339 8.112C271.884 8.904 271.657 9.872 271.657 11.016C271.657 12.1747 271.877 13.15 272.317 13.942C272.772 14.734 273.366 15.328 274.099 15.724C274.847 16.1053 275.654 16.296 276.519 16.296ZM290.699 17.176C289.584 17.176 288.579 16.9267 287.685 16.428C286.79 15.9293 286.086 15.218 285.573 14.294C285.074 13.3553 284.825 12.2627 284.825 11.016C284.825 9.784 285.081 8.706 285.595 7.782C286.108 6.84333 286.812 6.132 287.707 5.648C288.616 5.14933 289.628 4.9 290.743 4.9C291.857 4.9 292.862 5.14933 293.757 5.648C294.651 6.132 295.348 6.836 295.847 7.76C296.36 8.684 296.617 9.76933 296.617 11.016C296.617 12.2627 296.36 13.3553 295.847 14.294C295.333 15.218 294.622 15.9293 293.713 16.428C292.818 16.9267 291.813 17.176 290.699 17.176ZM290.699 16.296C291.564 16.296 292.371 16.1053 293.119 15.724C293.881 15.328 294.49 14.734 294.945 13.942C295.399 13.15 295.627 12.1747 295.627 11.016C295.627 9.872 295.399 8.904 294.945 8.112C294.49 7.32 293.889 6.73333 293.141 6.352C292.393 5.956 291.586 5.758 290.721 5.758C289.855 5.758 289.049 5.956 288.301 6.352C287.567 6.73333 286.973 7.32 286.519 8.112C286.064 8.904 285.837 9.872 285.837 11.016C285.837 12.1747 286.057 13.15 286.497 13.942C286.951 14.734 287.545 15.328 288.279 15.724C289.027 16.1053 289.833 16.296 290.699 16.296ZM305.824 17L300.61 11.522V17H299.62V0.72H300.61V10.466L305.736 5.054H307.122L301.336 10.994L307.188 17H305.824ZM313.206 17.176C311.871 17.176 310.779 16.8827 309.928 16.296C309.092 15.7093 308.623 14.8733 308.52 13.788H309.532C309.605 14.5653 309.957 15.1813 310.588 15.636C311.233 16.0907 312.106 16.318 313.206 16.318C314.115 16.318 314.834 16.0907 315.362 15.636C315.905 15.1667 316.176 14.5947 316.176 13.92C316.176 13.4507 316.029 13.0693 315.736 12.776C315.457 12.468 315.105 12.2333 314.68 12.072C314.255 11.9107 313.675 11.7347 312.942 11.544C312.062 11.3093 311.351 11.082 310.808 10.862C310.265 10.6273 309.803 10.2827 309.422 9.828C309.041 9.37333 308.85 8.76467 308.85 8.002C308.85 7.44467 309.019 6.93133 309.356 6.462C309.693 5.978 310.163 5.59667 310.764 5.318C311.365 5.03933 312.047 4.9 312.81 4.9C314.057 4.9 315.061 5.21533 315.824 5.846C316.601 6.462 317.019 7.32 317.078 8.42H316.088C316.044 7.628 315.736 6.98267 315.164 6.484C314.592 5.98533 313.8 5.736 312.788 5.736C311.937 5.736 311.233 5.956 310.676 6.396C310.119 6.836 309.84 7.37133 309.84 8.002C309.84 8.55933 309.994 9.014 310.302 9.366C310.625 9.70333 311.013 9.96733 311.468 10.158C311.937 10.334 312.553 10.5247 313.316 10.73C314.152 10.95 314.819 11.17 315.318 11.39C315.831 11.5953 316.264 11.9033 316.616 12.314C316.968 12.71 317.144 13.2453 317.144 13.92C317.144 14.536 316.975 15.0933 316.638 15.592C316.301 16.0907 315.831 16.4793 315.23 16.758C314.629 17.0367 313.954 17.176 313.206 17.176ZM327.358 0.72V17H326.368V0.72H327.358ZM331.494 2.392C331.259 2.392 331.061 2.31867 330.9 2.172C330.738 2.01067 330.658 1.798 330.658 1.534C330.658 1.28467 330.738 1.07933 330.9 0.918C331.061 0.756666 331.259 0.675999 331.494 0.675999C331.728 0.675999 331.926 0.756666 332.088 0.918C332.249 1.07933 332.33 1.28467 332.33 1.534C332.33 1.798 332.249 2.01067 332.088 2.172C331.926 2.31867 331.728 2.392 331.494 2.392ZM331.978 5.054V17H330.988V5.054H331.978ZM341.811 17L336.597 11.522V17H335.607V0.72H336.597V10.466L341.723 5.054H343.109L337.323 10.994L343.175 17H341.811ZM355.968 10.224C355.968 10.752 355.954 11.148 355.924 11.412H345.606C345.636 12.4827 345.87 13.3847 346.31 14.118C346.75 14.8513 347.33 15.4013 348.048 15.768C348.767 16.1347 349.552 16.318 350.402 16.318C351.576 16.318 352.558 16.032 353.35 15.46C354.142 14.8733 354.641 14.0813 354.846 13.084H355.88C355.646 14.3013 355.044 15.2913 354.076 16.054C353.108 16.802 351.884 17.176 350.402 17.176C349.288 17.176 348.29 16.9267 347.41 16.428C346.53 15.9293 345.841 15.218 345.342 14.294C344.844 13.3553 344.594 12.2627 344.594 11.016C344.594 9.76933 344.836 8.684 345.32 7.76C345.819 6.836 346.508 6.132 347.388 5.648C348.268 5.14933 349.273 4.9 350.402 4.9C351.546 4.9 352.536 5.14933 353.372 5.648C354.223 6.132 354.868 6.78467 355.308 7.606C355.748 8.41267 355.968 9.28533 355.968 10.224ZM354.978 10.598C355.022 9.542 354.832 8.64733 354.406 7.914C353.996 7.18067 353.431 6.638 352.712 6.286C351.994 5.91933 351.216 5.736 350.38 5.736C349.544 5.736 348.767 5.91933 348.048 6.286C347.344 6.638 346.765 7.18067 346.31 7.914C345.87 8.64733 345.636 9.542 345.606 10.598H354.978ZM364.553 11.016C364.553 9.784 364.795 8.706 365.279 7.782C365.778 6.858 366.46 6.14667 367.325 5.648C368.205 5.14933 369.203 4.9 370.317 4.9C371.579 4.9 372.649 5.208 373.529 5.824C374.409 6.44 375.025 7.22467 375.377 8.178V5.054H376.367V17H375.377V13.854C375.025 14.822 374.402 15.6213 373.507 16.252C372.627 16.868 371.564 17.176 370.317 17.176C369.203 17.176 368.205 16.9267 367.325 16.428C366.46 15.9147 365.778 15.196 365.279 14.272C364.795 13.3333 364.553 12.248 364.553 11.016ZM375.377 11.016C375.377 9.97467 375.157 9.058 374.717 8.266C374.292 7.45933 373.705 6.84333 372.957 6.418C372.209 5.978 371.373 5.758 370.449 5.758C369.481 5.758 368.631 5.97067 367.897 6.396C367.164 6.80667 366.592 7.408 366.181 8.2C365.771 8.992 365.565 9.93067 365.565 11.016C365.565 12.1013 365.771 13.04 366.181 13.832C366.592 14.624 367.164 15.2327 367.897 15.658C368.645 16.0833 369.496 16.296 370.449 16.296C371.373 16.296 372.209 16.0833 372.957 15.658C373.72 15.218 374.314 14.602 374.739 13.81C375.165 13.0033 375.377 12.072 375.377 11.016ZM385.362 4.812C386.785 4.812 387.943 5.252 388.838 6.132C389.733 6.99733 390.18 8.288 390.18 10.004V17H389.212V10.07C389.212 8.64733 388.853 7.562 388.134 6.814C387.415 6.05133 386.44 5.67 385.208 5.67C383.917 5.67 382.883 6.08067 382.106 6.902C381.343 7.72333 380.962 8.94067 380.962 10.554V17H379.972V5.054H380.962V7.584C381.299 6.68933 381.857 6.00733 382.634 5.538C383.426 5.054 384.335 4.812 385.362 4.812ZM393.063 11.016C393.063 9.784 393.305 8.706 393.789 7.782C394.288 6.858 394.97 6.14667 395.835 5.648C396.715 5.14933 397.712 4.9 398.827 4.9C400.044 4.9 401.1 5.208 401.995 5.824C402.89 6.42533 403.52 7.21 403.887 8.178V0.72H404.877V17H403.887V13.832C403.535 14.8147 402.919 15.6213 402.039 16.252C401.159 16.868 400.088 17.176 398.827 17.176C397.712 17.176 396.715 16.9267 395.835 16.428C394.97 15.9147 394.288 15.196 393.789 14.272C393.305 13.3333 393.063 12.248 393.063 11.016ZM403.887 11.016C403.887 9.97467 403.667 9.058 403.227 8.266C402.802 7.45933 402.215 6.84333 401.467 6.418C400.719 5.978 399.883 5.758 398.959 5.758C397.991 5.758 397.14 5.97067 396.407 6.396C395.674 6.80667 395.102 7.408 394.691 8.2C394.28 8.992 394.075 9.93067 394.075 11.016C394.075 12.1013 394.28 13.04 394.691 13.832C395.102 14.624 395.674 15.2327 396.407 15.658C397.155 16.0833 398.006 16.296 398.959 16.296C399.883 16.296 400.719 16.0833 401.467 15.658C402.23 15.218 402.824 14.602 403.249 13.81C403.674 13.0033 403.887 12.072 403.887 11.016ZM6.358 38.934H3.256V50H2.266V38.934H0.462V38.054H2.266V37.218C2.266 35.9713 2.58133 35.0473 3.212 34.446C3.84267 33.83 4.87667 33.522 6.314 33.522V34.402C5.17 34.402 4.37067 34.622 3.916 35.062C3.476 35.502 3.256 36.2207 3.256 37.218V38.054H6.358V38.934ZM19.6518 43.224C19.6518 43.752 19.6372 44.148 19.6078 44.412H9.28984C9.31918 45.4827 9.55384 46.3847 9.99384 47.118C10.4338 47.8513 11.0132 48.4013 11.7318 48.768C12.4505 49.1347 13.2352 49.318 14.0858 49.318C15.2592 49.318 16.2418 49.032 17.0338 48.46C17.8258 47.8733 18.3245 47.0813 18.5298 46.084H19.5638C19.3292 47.3013 18.7278 48.2913 17.7598 49.054C16.7918 49.802 15.5672 50.176 14.0858 50.176C12.9712 50.176 11.9738 49.9267 11.0938 49.428C10.2138 48.9293 9.52451 48.218 9.02584 47.294C8.52718 46.3553 8.27784 45.2627 8.27784 44.016C8.27784 42.7693 8.51984 41.684 9.00384 40.76C9.50251 39.836 10.1918 39.132 11.0718 38.648C11.9518 38.1493 12.9565 37.9 14.0858 37.9C15.2298 37.9 16.2198 38.1493 17.0558 38.648C17.9065 39.132 18.5518 39.7847 18.9918 40.606C19.4318 41.4127 19.6518 42.2853 19.6518 43.224ZM18.6618 43.598C18.7058 42.542 18.5152 41.6473 18.0898 40.914C17.6792 40.1807 17.1145 39.638 16.3958 39.286C15.6772 38.9193 14.8998 38.736 14.0638 38.736C13.2278 38.736 12.4505 38.9193 11.7318 39.286C11.0278 39.638 10.4485 40.1807 9.99384 40.914C9.55384 41.6473 9.31918 42.542 9.28984 43.598H18.6618ZM33.4018 43.224C33.4018 43.752 33.3872 44.148 33.3578 44.412H23.0398C23.0692 45.4827 23.3038 46.3847 23.7438 47.118C24.1838 47.8513 24.7632 48.4013 25.4818 48.768C26.2005 49.1347 26.9852 49.318 27.8358 49.318C29.0092 49.318 29.9918 49.032 30.7838 48.46C31.5758 47.8733 32.0745 47.0813 32.2798 46.084H33.3138C33.0792 47.3013 32.4778 48.2913 31.5098 49.054C30.5418 49.802 29.3172 50.176 27.8358 50.176C26.7212 50.176 25.7238 49.9267 24.8438 49.428C23.9638 48.9293 23.2745 48.218 22.7758 47.294C22.2772 46.3553 22.0278 45.2627 22.0278 44.016C22.0278 42.7693 22.2698 41.684 22.7538 40.76C23.2525 39.836 23.9418 39.132 24.8218 38.648C25.7018 38.1493 26.7065 37.9 27.8358 37.9C28.9798 37.9 29.9698 38.1493 30.8058 38.648C31.6565 39.132 32.3018 39.7847 32.7418 40.606C33.1818 41.4127 33.4018 42.2853 33.4018 43.224ZM32.4118 43.598C32.4558 42.542 32.2652 41.6473 31.8398 40.914C31.4292 40.1807 30.8645 39.638 30.1458 39.286C29.4272 38.9193 28.6498 38.736 27.8138 38.736C26.9778 38.736 26.2005 38.9193 25.4818 39.286C24.7778 39.638 24.1985 40.1807 23.7438 40.914C23.3038 41.6473 23.0692 42.542 23.0398 43.598H32.4118ZM37.3838 33.72V50H36.3938V33.72H37.3838ZM44.995 50.176C43.6603 50.176 42.5677 49.8827 41.717 49.296C40.881 48.7093 40.4117 47.8733 40.309 46.788H41.321C41.3943 47.5653 41.7463 48.1813 42.377 48.636C43.0223 49.0907 43.895 49.318 44.995 49.318C45.9043 49.318 46.623 49.0907 47.151 48.636C47.6937 48.1667 47.965 47.5947 47.965 46.92C47.965 46.4507 47.8183 46.0693 47.525 45.776C47.2463 45.468 46.8943 45.2333 46.469 45.072C46.0437 44.9107 45.4643 44.7347 44.731 44.544C43.851 44.3093 43.1397 44.082 42.597 43.862C42.0543 43.6273 41.5923 43.2827 41.211 42.828C40.8297 42.3733 40.639 41.7647 40.639 41.002C40.639 40.4447 40.8077 39.9313 41.145 39.462C41.4823 38.978 41.9517 38.5967 42.553 38.318C43.1543 38.0393 43.8363 37.9 44.599 37.9C45.8457 37.9 46.8503 38.2153 47.613 38.846C48.3903 39.462 48.8083 40.32 48.867 41.42H47.877C47.833 40.628 47.525 39.9827 46.953 39.484C46.381 38.9853 45.589 38.736 44.577 38.736C43.7263 38.736 43.0223 38.956 42.465 39.396C41.9077 39.836 41.629 40.3713 41.629 41.002C41.629 41.5593 41.783 42.014 42.091 42.366C42.4137 42.7033 42.8023 42.9673 43.257 43.158C43.7263 43.334 44.3423 43.5247 45.105 43.73C45.941 43.95 46.6083 44.17 47.107 44.39C47.6203 44.5953 48.053 44.9033 48.405 45.314C48.757 45.71 48.933 46.2453 48.933 46.92C48.933 47.536 48.7643 48.0933 48.427 48.592C48.0897 49.0907 47.6203 49.4793 47.019 49.758C46.4177 50.0367 45.743 50.176 44.995 50.176ZM59.1475 33.72V50H58.1575V33.72H59.1475ZM63.2827 35.392C63.048 35.392 62.85 35.3187 62.6887 35.172C62.5273 35.0107 62.4467 34.798 62.4467 34.534C62.4467 34.2847 62.5273 34.0793 62.6887 33.918C62.85 33.7567 63.048 33.676 63.2827 33.676C63.5173 33.676 63.7153 33.7567 63.8767 33.918C64.038 34.0793 64.1187 34.2847 64.1187 34.534C64.1187 34.798 64.038 35.0107 63.8767 35.172C63.7153 35.3187 63.5173 35.392 63.2827 35.392ZM63.7667 38.054V50H62.7767V38.054H63.7667ZM73.5998 50L68.3858 44.522V50H67.3958V33.72H68.3858V43.466L73.5118 38.054H74.8978L69.1118 43.994L74.9638 50H73.5998ZM87.7573 43.224C87.7573 43.752 87.7426 44.148 87.7133 44.412H77.3953C77.4246 45.4827 77.6593 46.3847 78.0993 47.118C78.5393 47.8513 79.1186 48.4013 79.8373 48.768C80.556 49.1347 81.3406 49.318 82.1913 49.318C83.3646 49.318 84.3473 49.032 85.1393 48.46C85.9313 47.8733 86.43 47.0813 86.6353 46.084H87.6693C87.4346 47.3013 86.8333 48.2913 85.8653 49.054C84.8973 49.802 83.6726 50.176 82.1913 50.176C81.0766 50.176 80.0793 49.9267 79.1993 49.428C78.3193 48.9293 77.63 48.218 77.1313 47.294C76.6326 46.3553 76.3833 45.2627 76.3833 44.016C76.3833 42.7693 76.6253 41.684 77.1093 40.76C77.608 39.836 78.2973 39.132 79.1773 38.648C80.0573 38.1493 81.062 37.9 82.1913 37.9C83.3353 37.9 84.3253 38.1493 85.1613 38.648C86.012 39.132 86.6573 39.7847 87.0973 40.606C87.5373 41.4127 87.7573 42.2853 87.7573 43.224ZM86.7673 43.598C86.8113 42.542 86.6206 41.6473 86.1953 40.914C85.7846 40.1807 85.22 39.638 84.5013 39.286C83.7826 38.9193 83.0053 38.736 82.1693 38.736C81.3333 38.736 80.556 38.9193 79.8373 39.286C79.1333 39.638 78.554 40.1807 78.0993 40.914C77.6593 41.6473 77.4246 42.542 77.3953 43.598H86.7673ZM90.5953 50.066C90.346 50.066 90.1406 49.9853 89.9793 49.824C89.818 49.6627 89.7373 49.4573 89.7373 49.208C89.7373 48.9587 89.818 48.7533 89.9793 48.592C90.1406 48.4307 90.346 48.35 90.5953 48.35C90.83 48.35 91.028 48.4307 91.1893 48.592C91.3506 48.7533 91.4313 48.9587 91.4313 49.208C91.4313 49.4573 91.3506 49.6627 91.1893 49.824C91.028 49.9853 90.83 50.066 90.5953 50.066ZM104.579 34.556C107.19 34.556 109.199 35.238 110.607 36.602C112.03 37.966 112.741 39.8653 112.741 42.3C112.741 44.7347 112.03 46.6267 110.607 47.976C109.199 49.3253 107.19 50 104.579 50H100.245V34.556H104.579ZM104.579 49.164C106.911 49.164 108.686 48.5627 109.903 47.36C111.121 46.1427 111.729 44.456 111.729 42.3C111.729 40.1293 111.121 38.4353 109.903 37.218C108.686 36.0007 106.911 35.392 104.579 35.392H101.235V49.164H104.579ZM126.494 43.224C126.494 43.752 126.479 44.148 126.45 44.412H116.132C116.161 45.4827 116.396 46.3847 116.836 47.118C117.276 47.8513 117.855 48.4013 118.574 48.768C119.292 49.1347 120.077 49.318 120.928 49.318C122.101 49.318 123.084 49.032 123.876 48.46C124.668 47.8733 125.166 47.0813 125.372 46.084H126.406C126.171 47.3013 125.57 48.2913 124.602 49.054C123.634 49.802 122.409 50.176 120.928 50.176C119.813 50.176 118.816 49.9267 117.936 49.428C117.056 48.9293 116.366 48.218 115.868 47.294C115.369 46.3553 115.12 45.2627 115.12 44.016C115.12 42.7693 115.362 41.684 115.846 40.76C116.344 39.836 117.034 39.132 117.914 38.648C118.794 38.1493 119.798 37.9 120.928 37.9C122.072 37.9 123.062 38.1493 123.898 38.648C124.748 39.132 125.394 39.7847 125.834 40.606C126.274 41.4127 126.494 42.2853 126.494 43.224ZM125.504 43.598C125.548 42.542 125.357 41.6473 124.932 40.914C124.521 40.1807 123.956 39.638 123.238 39.286C122.519 38.9193 121.742 38.736 120.906 38.736C120.07 38.736 119.292 38.9193 118.574 39.286C117.87 39.638 117.29 40.1807 116.836 40.914C116.396 41.6473 116.161 42.542 116.132 43.598H125.504ZM133.468 50.176C132.133 50.176 131.04 49.8827 130.19 49.296C129.354 48.7093 128.884 47.8733 128.782 46.788H129.794C129.867 47.5653 130.219 48.1813 130.85 48.636C131.495 49.0907 132.368 49.318 133.468 49.318C134.377 49.318 135.096 49.0907 135.624 48.636C136.166 48.1667 136.438 47.5947 136.438 46.92C136.438 46.4507 136.291 46.0693 135.998 45.776C135.719 45.468 135.367 45.2333 134.942 45.072C134.516 44.9107 133.937 44.7347 133.204 44.544C132.324 44.3093 131.612 44.082 131.07 43.862C130.527 43.6273 130.065 43.2827 129.684 42.828C129.302 42.3733 129.112 41.7647 129.112 41.002C129.112 40.4447 129.28 39.9313 129.618 39.462C129.955 38.978 130.424 38.5967 131.026 38.318C131.627 38.0393 132.309 37.9 133.072 37.9C134.318 37.9 135.323 38.2153 136.086 38.846C136.863 39.462 137.281 40.32 137.34 41.42H136.35C136.306 40.628 135.998 39.9827 135.426 39.484C134.854 38.9853 134.062 38.736 133.05 38.736C132.199 38.736 131.495 38.956 130.938 39.396C130.38 39.836 130.102 40.3713 130.102 41.002C130.102 41.5593 130.256 42.014 130.564 42.366C130.886 42.7033 131.275 42.9673 131.73 43.158C132.199 43.334 132.815 43.5247 133.578 43.73C134.414 43.95 135.081 44.17 135.58 44.39C136.093 44.5953 136.526 44.9033 136.878 45.314C137.23 45.71 137.406 46.2453 137.406 46.92C137.406 47.536 137.237 48.0933 136.9 48.592C136.562 49.0907 136.093 49.4793 135.492 49.758C134.89 50.0367 134.216 50.176 133.468 50.176ZM140.927 35.392C140.693 35.392 140.495 35.3187 140.333 35.172C140.172 35.0107 140.091 34.798 140.091 34.534C140.091 34.2847 140.172 34.0793 140.333 33.918C140.495 33.7567 140.693 33.676 140.927 33.676C141.162 33.676 141.36 33.7567 141.521 33.918C141.683 34.0793 141.763 34.2847 141.763 34.534C141.763 34.798 141.683 35.0107 141.521 35.172C141.36 35.3187 141.162 35.392 140.927 35.392ZM141.411 38.054V50H140.421V38.054H141.411ZM150.188 37.9C151.45 37.9 152.52 38.208 153.4 38.824C154.28 39.4253 154.896 40.2027 155.248 41.156V38.054H156.238V50.374C156.238 51.474 155.996 52.4347 155.512 53.256C155.028 54.092 154.376 54.73 153.554 55.17C152.733 55.6247 151.816 55.852 150.804 55.852C149.308 55.852 148.069 55.4927 147.086 54.774C146.104 54.0553 145.458 53.0873 145.15 51.87H146.14C146.434 52.8233 146.984 53.5787 147.79 54.136C148.597 54.708 149.602 54.994 150.804 54.994C151.64 54.994 152.396 54.8033 153.07 54.422C153.745 54.0553 154.273 53.52 154.654 52.816C155.05 52.1267 155.248 51.3127 155.248 50.374V46.876C154.896 47.8293 154.273 48.6213 153.378 49.252C152.498 49.868 151.435 50.176 150.188 50.176C149.074 50.176 148.076 49.9267 147.196 49.428C146.331 48.9147 145.649 48.196 145.15 47.272C144.666 46.3333 144.424 45.248 144.424 44.016C144.424 42.784 144.666 41.706 145.15 40.782C145.649 39.858 146.331 39.1467 147.196 38.648C148.076 38.1493 149.074 37.9 150.188 37.9ZM155.248 44.016C155.248 42.9747 155.028 42.058 154.588 41.266C154.163 40.4593 153.576 39.8433 152.828 39.418C152.08 38.978 151.244 38.758 150.32 38.758C149.352 38.758 148.502 38.9707 147.768 39.396C147.035 39.8067 146.463 40.408 146.052 41.2C145.642 41.992 145.436 42.9307 145.436 44.016C145.436 45.1013 145.642 46.04 146.052 46.832C146.463 47.624 147.035 48.2327 147.768 48.658C148.516 49.0833 149.367 49.296 150.32 49.296C151.244 49.296 152.08 49.0833 152.828 48.658C153.591 48.218 154.185 47.602 154.61 46.81C155.036 46.0033 155.248 45.072 155.248 44.016ZM165.233 37.812C166.656 37.812 167.814 38.252 168.709 39.132C169.604 39.9973 170.051 41.288 170.051 43.004V50H169.083V43.07C169.083 41.6473 168.724 40.562 168.005 39.814C167.286 39.0513 166.311 38.67 165.079 38.67C163.788 38.67 162.754 39.0807 161.977 39.902C161.214 40.7233 160.833 41.9407 160.833 43.554V50H159.843V38.054H160.833V40.584C161.17 39.6893 161.728 39.0073 162.505 38.538C163.297 38.054 164.206 37.812 165.233 37.812ZM180.265 35.392C180.03 35.392 179.832 35.3187 179.671 35.172C179.51 35.0107 179.429 34.798 179.429 34.534C179.429 34.2847 179.51 34.0793 179.671 33.918C179.832 33.7567 180.03 33.676 180.265 33.676C180.5 33.676 180.698 33.7567 180.859 33.918C181.02 34.0793 181.101 34.2847 181.101 34.534C181.101 34.798 181.02 35.0107 180.859 35.172C180.698 35.3187 180.5 35.392 180.265 35.392ZM180.749 38.054V50H179.759V38.054H180.749ZM188.36 50.176C187.026 50.176 185.933 49.8827 185.082 49.296C184.246 48.7093 183.777 47.8733 183.674 46.788H184.686C184.76 47.5653 185.112 48.1813 185.742 48.636C186.388 49.0907 187.26 49.318 188.36 49.318C189.27 49.318 189.988 49.0907 190.516 48.636C191.059 48.1667 191.33 47.5947 191.33 46.92C191.33 46.4507 191.184 46.0693 190.89 45.776C190.612 45.468 190.26 45.2333 189.834 45.072C189.409 44.9107 188.83 44.7347 188.096 44.544C187.216 44.3093 186.505 44.082 185.962 43.862C185.42 43.6273 184.958 43.2827 184.576 42.828C184.195 42.3733 184.004 41.7647 184.004 41.002C184.004 40.4447 184.173 39.9313 184.51 39.462C184.848 38.978 185.317 38.5967 185.918 38.318C186.52 38.0393 187.202 37.9 187.964 37.9C189.211 37.9 190.216 38.2153 190.978 38.846C191.756 39.462 192.174 40.32 192.232 41.42H191.242C191.198 40.628 190.89 39.9827 190.318 39.484C189.746 38.9853 188.954 38.736 187.942 38.736C187.092 38.736 186.388 38.956 185.83 39.396C185.273 39.836 184.994 40.3713 184.994 41.002C184.994 41.5593 185.148 42.014 185.456 42.366C185.779 42.7033 186.168 42.9673 186.622 43.158C187.092 43.334 187.708 43.5247 188.47 43.73C189.306 43.95 189.974 44.17 190.472 44.39C190.986 44.5953 191.418 44.9033 191.77 45.314C192.122 45.71 192.298 46.2453 192.298 46.92C192.298 47.536 192.13 48.0933 191.792 48.592C191.455 49.0907 190.986 49.4793 190.384 49.758C189.783 50.0367 189.108 50.176 188.36 50.176ZM206.935 37.812C208.343 37.812 209.494 38.252 210.389 39.132C211.283 39.9973 211.731 41.288 211.731 43.004V50H210.763V43.07C210.763 41.6473 210.403 40.562 209.685 39.814C208.966 39.0513 207.991 38.67 206.759 38.67C205.468 38.67 204.434 39.0807 203.657 39.902C202.894 40.7233 202.513 41.9407 202.513 43.554V50H201.523V33.72H202.513V40.584C202.85 39.6893 203.415 39.0073 204.207 38.538C204.999 38.054 205.908 37.812 206.935 37.812ZM220.488 50.176C219.373 50.176 218.368 49.9267 217.474 49.428C216.579 48.9293 215.875 48.218 215.362 47.294C214.863 46.3553 214.614 45.2627 214.614 44.016C214.614 42.784 214.87 41.706 215.384 40.782C215.897 39.8433 216.601 39.132 217.496 38.648C218.405 38.1493 219.417 37.9 220.532 37.9C221.646 37.9 222.651 38.1493 223.546 38.648C224.44 39.132 225.137 39.836 225.636 40.76C226.149 41.684 226.406 42.7693 226.406 44.016C226.406 45.2627 226.149 46.3553 225.636 47.294C225.122 48.218 224.411 48.9293 223.502 49.428C222.607 49.9267 221.602 50.176 220.488 50.176ZM220.488 49.296C221.353 49.296 222.16 49.1053 222.908 48.724C223.67 48.328 224.279 47.734 224.734 46.942C225.188 46.15 225.416 45.1747 225.416 44.016C225.416 42.872 225.188 41.904 224.734 41.112C224.279 40.32 223.678 39.7333 222.93 39.352C222.182 38.956 221.375 38.758 220.51 38.758C219.644 38.758 218.838 38.956 218.09 39.352C217.356 39.7333 216.762 40.32 216.308 41.112C215.853 41.904 215.626 42.872 215.626 44.016C215.626 45.1747 215.846 46.15 216.286 46.942C216.74 47.734 217.334 48.328 218.068 48.724C218.816 49.1053 219.622 49.296 220.488 49.296ZM245.029 38.054L241.267 50H240.321L236.515 39.418L232.687 50H231.741L227.979 38.054H229.013L232.225 48.878L236.053 38.054H236.999L240.805 48.834L244.017 38.054H245.029ZM253.914 35.392C253.679 35.392 253.481 35.3187 253.32 35.172C253.158 35.0107 253.078 34.798 253.078 34.534C253.078 34.2847 253.158 34.0793 253.32 33.918C253.481 33.7567 253.679 33.676 253.914 33.676C254.148 33.676 254.346 33.7567 254.508 33.918C254.669 34.0793 254.75 34.2847 254.75 34.534C254.75 34.798 254.669 35.0107 254.508 35.172C254.346 35.3187 254.148 35.392 253.914 35.392ZM254.398 38.054V50H253.408V38.054H254.398ZM259.501 38.912V46.81C259.501 47.69 259.662 48.2987 259.985 48.636C260.307 48.9587 260.879 49.12 261.701 49.12H263.043V50H261.547C260.505 50 259.735 49.758 259.237 49.274C258.753 48.7753 258.511 47.954 258.511 46.81V38.912H256.707V38.054H258.511V35.018H259.501V38.054H263.043V38.912H259.501ZM287.483 38.054L283.721 50H282.775L278.969 39.418L275.141 50H274.195L270.433 38.054H271.467L274.679 48.878L278.507 38.054H279.453L283.259 48.834L286.471 38.054H287.483ZM294.91 50.176C293.795 50.176 292.79 49.9267 291.896 49.428C291.001 48.9293 290.297 48.218 289.784 47.294C289.285 46.3553 289.036 45.2627 289.036 44.016C289.036 42.784 289.292 41.706 289.806 40.782C290.319 39.8433 291.023 39.132 291.918 38.648C292.827 38.1493 293.839 37.9 294.954 37.9C296.068 37.9 297.073 38.1493 297.968 38.648C298.862 39.132 299.559 39.836 300.058 40.76C300.571 41.684 300.828 42.7693 300.828 44.016C300.828 45.2627 300.571 46.3553 300.058 47.294C299.544 48.218 298.833 48.9293 297.924 49.428C297.029 49.9267 296.024 50.176 294.91 50.176ZM294.91 49.296C295.775 49.296 296.582 49.1053 297.33 48.724C298.092 48.328 298.701 47.734 299.156 46.942C299.61 46.15 299.838 45.1747 299.838 44.016C299.838 42.872 299.61 41.904 299.156 41.112C298.701 40.32 298.1 39.7333 297.352 39.352C296.604 38.956 295.797 38.758 294.932 38.758C294.066 38.758 293.26 38.956 292.512 39.352C291.778 39.7333 291.184 40.32 290.73 41.112C290.275 41.904 290.048 42.872 290.048 44.016C290.048 45.1747 290.268 46.15 290.708 46.942C291.162 47.734 291.756 48.328 292.49 48.724C293.238 49.1053 294.044 49.296 294.91 49.296ZM304.821 40.518C305.115 39.638 305.635 38.9707 306.383 38.516C307.131 38.0467 308.085 37.812 309.243 37.812V38.846H308.913C307.74 38.846 306.765 39.1833 305.987 39.858C305.21 40.518 304.821 41.6033 304.821 43.114V50H303.831V38.054H304.821V40.518ZM317.727 50L312.513 44.522V50H311.523V33.72H312.513V43.466L317.639 38.054H319.025L313.239 43.994L319.091 50H317.727ZM325.108 50.176C323.774 50.176 322.681 49.8827 321.83 49.296C320.994 48.7093 320.525 47.8733 320.422 46.788H321.434C321.508 47.5653 321.86 48.1813 322.49 48.636C323.136 49.0907 324.008 49.318 325.108 49.318C326.018 49.318 326.736 49.0907 327.264 48.636C327.807 48.1667 328.078 47.5947 328.078 46.92C328.078 46.4507 327.932 46.0693 327.638 45.776C327.36 45.468 327.008 45.2333 326.582 45.072C326.157 44.9107 325.578 44.7347 324.844 44.544C323.964 44.3093 323.253 44.082 322.71 43.862C322.168 43.6273 321.706 43.2827 321.324 42.828C320.943 42.3733 320.752 41.7647 320.752 41.002C320.752 40.4447 320.921 39.9313 321.258 39.462C321.596 38.978 322.065 38.5967 322.666 38.318C323.268 38.0393 323.95 37.9 324.712 37.9C325.959 37.9 326.964 38.2153 327.726 38.846C328.504 39.462 328.922 40.32 328.98 41.42H327.99C327.946 40.628 327.638 39.9827 327.066 39.484C326.494 38.9853 325.702 38.736 324.69 38.736C323.84 38.736 323.136 38.956 322.578 39.396C322.021 39.836 321.742 40.3713 321.742 41.002C321.742 41.5593 321.896 42.014 322.204 42.366C322.527 42.7033 322.916 42.9673 323.37 43.158C323.84 43.334 324.456 43.5247 325.218 43.73C326.054 43.95 326.722 44.17 327.22 44.39C327.734 44.5953 328.166 44.9033 328.518 45.314C328.87 45.71 329.046 46.2453 329.046 46.92C329.046 47.536 328.878 48.0933 328.54 48.592C328.203 49.0907 327.734 49.4793 327.132 49.758C326.531 50.0367 325.856 50.176 325.108 50.176ZM331.908 50.066C331.658 50.066 331.453 49.9853 331.292 49.824C331.13 49.6627 331.05 49.4573 331.05 49.208C331.05 48.9587 331.13 48.7533 331.292 48.592C331.453 48.4307 331.658 48.35 331.908 48.35C332.142 48.35 332.34 48.4307 332.502 48.592C332.663 48.7533 332.744 48.9587 332.744 49.208C332.744 49.4573 332.663 49.6627 332.502 49.824C332.34 49.9853 332.142 50.066 331.908 50.066Z" fill="white"/>
</svg>
