<svg width="360" height="56" viewBox="0 0 360 56" fill="none" xmlns="http://www.w3.org/2000/svg">
<path d="M1.794 2.392V8.838H7.954V9.674H1.794V16.164H8.614V17H0.804V1.556H8.614V2.392H1.794ZM15.6586 15.922L20.0586 5.054H21.1146L16.1646 17H15.1306L10.1806 5.054H11.2586L15.6586 15.922ZM34.0561 10.224C34.0561 10.752 34.0415 11.148 34.0121 11.412H23.6941C23.7235 12.4827 23.9581 13.3847 24.3981 14.118C24.8381 14.8513 25.4175 15.4013 26.1361 15.768C26.8548 16.1347 27.6395 16.318 28.4901 16.318C29.6635 16.318 30.6461 16.032 31.4381 15.46C32.2301 14.8733 32.7288 14.0813 32.9341 13.084H33.9681C33.7335 14.3013 33.1321 15.2913 32.1641 16.054C31.1961 16.802 29.9715 17.176 28.4901 17.176C27.3755 17.176 26.3781 16.9267 25.4981 16.428C24.6181 15.9293 23.9288 15.218 23.4301 14.294C22.9315 13.3553 22.6821 12.2627 22.6821 11.016C22.6821 9.76933 22.9241 8.684 23.4081 7.76C23.9068 6.836 24.5961 6.132 25.4761 5.648C26.3561 5.14933 27.3608 4.9 28.4901 4.9C29.6341 4.9 30.6241 5.14933 31.4601 5.648C32.3108 6.132 32.9561 6.78467 33.3961 7.606C33.8361 8.41267 34.0561 9.28533 34.0561 10.224ZM33.0661 10.598C33.1101 9.542 32.9195 8.64733 32.4941 7.914C32.0835 7.18067 31.5188 6.638 30.8001 6.286C30.0815 5.91933 29.3041 5.736 28.4681 5.736C27.6321 5.736 26.8548 5.91933 26.1361 6.286C25.4321 6.638 24.8528 7.18067 24.3981 7.914C23.9581 8.64733 23.7235 9.542 23.6941 10.598H33.0661ZM38.0381 7.518C38.3315 6.638 38.8521 5.97067 39.6001 5.516C40.3481 5.04667 41.3015 4.812 42.4601 4.812V5.846H42.1301C40.9568 5.846 39.9815 6.18333 39.2041 6.858C38.4268 7.518 38.0381 8.60333 38.0381 10.114V17H37.0481V5.054H38.0381V7.518ZM54.0675 5.054L47.1155 22.61H46.1035L48.3255 17L43.3095 5.054H44.3875L48.8755 15.9L53.0555 5.054H54.0675ZM67.6336 4.9C68.895 4.9 69.9656 5.208 70.8456 5.824C71.7256 6.42533 72.3416 7.20267 72.6936 8.156V5.054H73.6836V17.374C73.6836 18.474 73.4416 19.4347 72.9576 20.256C72.4736 21.092 71.821 21.73 70.9996 22.17C70.1783 22.6247 69.2616 22.852 68.2496 22.852C66.7536 22.852 65.5143 22.4927 64.5316 21.774C63.549 21.0553 62.9036 20.0873 62.5956 18.87H63.5856C63.879 19.8233 64.429 20.5787 65.2356 21.136C66.0423 21.708 67.047 21.994 68.2496 21.994C69.0856 21.994 69.841 21.8033 70.5156 21.422C71.1903 21.0553 71.7183 20.52 72.0996 19.816C72.4956 19.1267 72.6936 18.3127 72.6936 17.374V13.876C72.3416 14.8293 71.7183 15.6213 70.8236 16.252C69.9436 16.868 68.8803 17.176 67.6336 17.176C66.519 17.176 65.5216 16.9267 64.6416 16.428C63.7763 15.9147 63.0943 15.196 62.5956 14.272C62.1116 13.3333 61.8696 12.248 61.8696 11.016C61.8696 9.784 62.1116 8.706 62.5956 7.782C63.0943 6.858 63.7763 6.14667 64.6416 5.648C65.5216 5.14933 66.519 4.9 67.6336 4.9ZM72.6936 11.016C72.6936 9.97467 72.4736 9.058 72.0336 8.266C71.6083 7.45933 71.0216 6.84333 70.2736 6.418C69.5256 5.978 68.6896 5.758 67.7656 5.758C66.7976 5.758 65.947 5.97067 65.2136 6.396C64.4803 6.80667 63.9083 7.408 63.4976 8.2C63.087 8.992 62.8816 9.93067 62.8816 11.016C62.8816 12.1013 63.087 13.04 63.4976 13.832C63.9083 14.624 64.4803 15.2327 65.2136 15.658C65.9616 16.0833 66.8123 16.296 67.7656 16.296C68.6896 16.296 69.5256 16.0833 70.2736 15.658C71.0363 15.218 71.6303 14.602 72.0556 13.81C72.481 13.0033 72.6936 12.072 72.6936 11.016ZM78.2784 7.518C78.5717 6.638 79.0924 5.97067 79.8404 5.516C80.5884 5.04667 81.5417 4.812 82.7004 4.812V5.846H82.3704C81.197 5.846 80.2217 6.18333 79.4444 6.858C78.667 7.518 78.2784 8.60333 78.2784 10.114V17H77.2884V5.054H78.2784V7.518ZM95.7378 10.224C95.7378 10.752 95.7231 11.148 95.6938 11.412H85.3758C85.4051 12.4827 85.6398 13.3847 86.0798 14.118C86.5198 14.8513 87.0991 15.4013 87.8178 15.768C88.5364 16.1347 89.3211 16.318 90.1718 16.318C91.3451 16.318 92.3278 16.032 93.1198 15.46C93.9118 14.8733 94.4104 14.0813 94.6158 13.084H95.6498C95.4151 14.3013 94.8138 15.2913 93.8458 16.054C92.8778 16.802 91.6531 17.176 90.1718 17.176C89.0571 17.176 88.0598 16.9267 87.1798 16.428C86.2998 15.9293 85.6104 15.218 85.1118 14.294C84.6131 13.3553 84.3638 12.2627 84.3638 11.016C84.3638 9.76933 84.6058 8.684 85.0898 7.76C85.5884 6.836 86.2778 6.132 87.1578 5.648C88.0378 5.14933 89.0424 4.9 90.1718 4.9C91.3158 4.9 92.3058 5.14933 93.1418 5.648C93.9924 6.132 94.6378 6.78467 95.0778 7.606C95.5178 8.41267 95.7378 9.28533 95.7378 10.224ZM94.7478 10.598C94.7918 9.542 94.6011 8.64733 94.1758 7.914C93.7651 7.18067 93.2004 6.638 92.4818 6.286C91.7631 5.91933 90.9858 5.736 90.1498 5.736C89.3138 5.736 88.5364 5.91933 87.8178 6.286C87.1138 6.638 86.5344 7.18067 86.0798 7.914C85.6398 8.64733 85.4051 9.542 85.3758 10.598H94.7478ZM98.1138 11.016C98.1138 9.784 98.3558 8.706 98.8398 7.782C99.3384 6.858 100.02 6.14667 100.886 5.648C101.766 5.14933 102.763 4.9 103.878 4.9C105.139 4.9 106.21 5.208 107.09 5.824C107.97 6.44 108.586 7.22467 108.938 8.178V5.054H109.928V17H108.938V13.854C108.586 14.822 107.962 15.6213 107.068 16.252C106.188 16.868 105.124 17.176 103.878 17.176C102.763 17.176 101.766 16.9267 100.886 16.428C100.02 15.9147 99.3384 15.196 98.8398 14.272C98.3558 13.3333 98.1138 12.248 98.1138 11.016ZM108.938 11.016C108.938 9.97467 108.718 9.058 108.278 8.266C107.852 7.45933 107.266 6.84333 106.518 6.418C105.77 5.978 104.934 5.758 104.01 5.758C103.042 5.758 102.191 5.97067 101.458 6.396C100.724 6.80667 100.152 7.408 99.7418 8.2C99.3311 8.992 99.1258 9.93067 99.1258 11.016C99.1258 12.1013 99.3311 13.04 99.7418 13.832C100.152 14.624 100.724 15.2327 101.458 15.658C102.206 16.0833 103.056 16.296 104.01 16.296C104.934 16.296 105.77 16.0833 106.518 15.658C107.28 15.218 107.874 14.602 108.3 13.81C108.725 13.0033 108.938 12.072 108.938 11.016ZM115.007 5.912V13.81C115.007 14.69 115.168 15.2987 115.491 15.636C115.813 15.9587 116.385 16.12 117.207 16.12H118.549V17H117.053C116.011 17 115.241 16.758 114.743 16.274C114.259 15.7753 114.017 14.954 114.017 13.81V5.912H112.213V5.054H114.017V2.018H115.007V5.054H118.549V5.912H115.007ZM126.752 11.016C126.752 9.784 126.994 8.706 127.478 7.782C127.977 6.858 128.659 6.14667 129.524 5.648C130.404 5.14933 131.402 4.9 132.516 4.9C133.734 4.9 134.79 5.208 135.684 5.824C136.579 6.42533 137.21 7.21 137.576 8.178V0.72H138.566V17H137.576V13.832C137.224 14.8147 136.608 15.6213 135.728 16.252C134.848 16.868 133.778 17.176 132.516 17.176C131.402 17.176 130.404 16.9267 129.524 16.428C128.659 15.9147 127.977 15.196 127.478 14.272C126.994 13.3333 126.752 12.248 126.752 11.016ZM137.576 11.016C137.576 9.97467 137.356 9.058 136.916 8.266C136.491 7.45933 135.904 6.84333 135.156 6.418C134.408 5.978 133.572 5.758 132.648 5.758C131.68 5.758 130.83 5.97067 130.096 6.396C129.363 6.80667 128.791 7.408 128.38 8.2C127.97 8.992 127.764 9.93067 127.764 11.016C127.764 12.1013 127.97 13.04 128.38 13.832C128.791 14.624 129.363 15.2327 130.096 15.658C130.844 16.0833 131.695 16.296 132.648 16.296C133.572 16.296 134.408 16.0833 135.156 15.658C135.919 15.218 136.513 14.602 136.938 13.81C137.364 13.0033 137.576 12.072 137.576 11.016ZM152.929 10.224C152.929 10.752 152.915 11.148 152.885 11.412H142.567C142.597 12.4827 142.831 13.3847 143.271 14.118C143.711 14.8513 144.291 15.4013 145.009 15.768C145.728 16.1347 146.513 16.318 147.363 16.318C148.537 16.318 149.519 16.032 150.311 15.46C151.103 14.8733 151.602 14.0813 151.807 13.084H152.841C152.607 14.3013 152.005 15.2913 151.037 16.054C150.069 16.802 148.845 17.176 147.363 17.176C146.249 17.176 145.251 16.9267 144.371 16.428C143.491 15.9293 142.802 15.218 142.303 14.294C141.805 13.3553 141.555 12.2627 141.555 11.016C141.555 9.76933 141.797 8.684 142.281 7.76C142.78 6.836 143.469 6.132 144.349 5.648C145.229 5.14933 146.234 4.9 147.363 4.9C148.507 4.9 149.497 5.14933 150.333 5.648C151.184 6.132 151.829 6.78467 152.269 7.606C152.709 8.41267 152.929 9.28533 152.929 10.224ZM151.939 10.598C151.983 9.542 151.793 8.64733 151.367 7.914C150.957 7.18067 150.392 6.638 149.673 6.286C148.955 5.91933 148.177 5.736 147.341 5.736C146.505 5.736 145.728 5.91933 145.009 6.286C144.305 6.638 143.726 7.18067 143.271 7.914C142.831 8.64733 142.597 9.542 142.567 10.598H151.939ZM159.903 17.176C158.569 17.176 157.476 16.8827 156.625 16.296C155.789 15.7093 155.32 14.8733 155.217 13.788H156.229C156.303 14.5653 156.655 15.1813 157.285 15.636C157.931 16.0907 158.803 16.318 159.903 16.318C160.813 16.318 161.531 16.0907 162.059 15.636C162.602 15.1667 162.873 14.5947 162.873 13.92C162.873 13.4507 162.727 13.0693 162.433 12.776C162.155 12.468 161.803 12.2333 161.377 12.072C160.952 11.9107 160.373 11.7347 159.639 11.544C158.759 11.3093 158.048 11.082 157.505 10.862C156.963 10.6273 156.501 10.2827 156.119 9.828C155.738 9.37333 155.547 8.76467 155.547 8.002C155.547 7.44467 155.716 6.93133 156.053 6.462C156.391 5.978 156.86 5.59667 157.461 5.318C158.063 5.03933 158.745 4.9 159.507 4.9C160.754 4.9 161.759 5.21533 162.521 5.846C163.299 6.462 163.717 7.32 163.775 8.42H162.785C162.741 7.628 162.433 6.98267 161.861 6.484C161.289 5.98533 160.497 5.736 159.485 5.736C158.635 5.736 157.931 5.956 157.373 6.396C156.816 6.836 156.537 7.37133 156.537 8.002C156.537 8.55933 156.691 9.014 156.999 9.366C157.322 9.70333 157.711 9.96733 158.165 10.158C158.635 10.334 159.251 10.5247 160.013 10.73C160.849 10.95 161.517 11.17 162.015 11.39C162.529 11.5953 162.961 11.9033 163.313 12.314C163.665 12.71 163.841 13.2453 163.841 13.92C163.841 14.536 163.673 15.0933 163.335 15.592C162.998 16.0907 162.529 16.4793 161.927 16.758C161.326 17.0367 160.651 17.176 159.903 17.176ZM167.363 2.392C167.128 2.392 166.93 2.31867 166.769 2.172C166.607 2.01067 166.527 1.798 166.527 1.534C166.527 1.28467 166.607 1.07933 166.769 0.918C166.93 0.756666 167.128 0.675999 167.363 0.675999C167.597 0.675999 167.795 0.756666 167.957 0.918C168.118 1.07933 168.199 1.28467 168.199 1.534C168.199 1.798 168.118 2.01067 167.957 2.172C167.795 2.31867 167.597 2.392 167.363 2.392ZM167.847 5.054V17H166.857V5.054H167.847ZM176.624 4.9C177.885 4.9 178.956 5.208 179.836 5.824C180.716 6.42533 181.332 7.20267 181.684 8.156V5.054H182.674V17.374C182.674 18.474 182.432 19.4347 181.948 20.256C181.464 21.092 180.811 21.73 179.99 22.17C179.169 22.6247 178.252 22.852 177.24 22.852C175.744 22.852 174.505 22.4927 173.522 21.774C172.539 21.0553 171.894 20.0873 171.586 18.87H172.576C172.869 19.8233 173.419 20.5787 174.226 21.136C175.033 21.708 176.037 21.994 177.24 21.994C178.076 21.994 178.831 21.8033 179.506 21.422C180.181 21.0553 180.709 20.52 181.09 19.816C181.486 19.1267 181.684 18.3127 181.684 17.374V13.876C181.332 14.8293 180.709 15.6213 179.814 16.252C178.934 16.868 177.871 17.176 176.624 17.176C175.509 17.176 174.512 16.9267 173.632 16.428C172.767 15.9147 172.085 15.196 171.586 14.272C171.102 13.3333 170.86 12.248 170.86 11.016C170.86 9.784 171.102 8.706 171.586 7.782C172.085 6.858 172.767 6.14667 173.632 5.648C174.512 5.14933 175.509 4.9 176.624 4.9ZM181.684 11.016C181.684 9.97467 181.464 9.058 181.024 8.266C180.599 7.45933 180.012 6.84333 179.264 6.418C178.516 5.978 177.68 5.758 176.756 5.758C175.788 5.758 174.937 5.97067 174.204 6.396C173.471 6.80667 172.899 7.408 172.488 8.2C172.077 8.992 171.872 9.93067 171.872 11.016C171.872 12.1013 172.077 13.04 172.488 13.832C172.899 14.624 173.471 15.2327 174.204 15.658C174.952 16.0833 175.803 16.296 176.756 16.296C177.68 16.296 178.516 16.0833 179.264 15.658C180.027 15.218 180.621 14.602 181.046 13.81C181.471 13.0033 181.684 12.072 181.684 11.016ZM191.669 4.812C193.091 4.812 194.25 5.252 195.145 6.132C196.039 6.99733 196.487 8.288 196.487 10.004V17H195.519V10.07C195.519 8.64733 195.159 7.562 194.441 6.814C193.722 6.05133 192.747 5.67 191.515 5.67C190.224 5.67 189.19 6.08067 188.413 6.902C187.65 7.72333 187.269 8.94067 187.269 10.554V17H186.279V5.054H187.269V7.584C187.606 6.68933 188.163 6.00733 188.941 5.538C189.733 5.054 190.642 4.812 191.669 4.812ZM207.185 8.2C207.551 7.232 208.175 6.44 209.055 5.824C209.935 5.208 210.998 4.9 212.245 4.9C213.359 4.9 214.349 5.14933 215.215 5.648C216.095 6.14667 216.777 6.858 217.261 7.782C217.759 8.706 218.009 9.784 218.009 11.016C218.009 12.248 217.759 13.3333 217.261 14.272C216.777 15.196 216.095 15.9147 215.215 16.428C214.349 16.9267 213.359 17.176 212.245 17.176C210.998 17.176 209.927 16.868 209.033 16.252C208.153 15.636 207.537 14.844 207.185 13.876V17H206.195V0.72H207.185V8.2ZM216.997 11.016C216.997 9.93067 216.791 8.992 216.381 8.2C215.97 7.408 215.391 6.80667 214.643 6.396C213.909 5.97067 213.059 5.758 212.091 5.758C211.167 5.758 210.331 5.978 209.583 6.418C208.835 6.84333 208.248 7.45933 207.823 8.266C207.397 9.058 207.185 9.97467 207.185 11.016C207.185 12.072 207.397 13.0033 207.823 13.81C208.248 14.602 208.835 15.218 209.583 15.658C210.331 16.0833 211.167 16.296 212.091 16.296C213.059 16.296 213.909 16.0833 214.643 15.658C215.391 15.2327 215.97 14.624 216.381 13.832C216.791 13.04 216.997 12.1013 216.997 11.016ZM231.755 10.224C231.755 10.752 231.741 11.148 231.711 11.412H221.393C221.423 12.4827 221.657 13.3847 222.097 14.118C222.537 14.8513 223.117 15.4013 223.835 15.768C224.554 16.1347 225.339 16.318 226.189 16.318C227.363 16.318 228.345 16.032 229.137 15.46C229.929 14.8733 230.428 14.0813 230.633 13.084H231.667C231.433 14.3013 230.831 15.2913 229.863 16.054C228.895 16.802 227.671 17.176 226.189 17.176C225.075 17.176 224.077 16.9267 223.197 16.428C222.317 15.9293 221.628 15.218 221.129 14.294C220.631 13.3553 220.381 12.2627 220.381 11.016C220.381 9.76933 220.623 8.684 221.107 7.76C221.606 6.836 222.295 6.132 223.175 5.648C224.055 5.14933 225.06 4.9 226.189 4.9C227.333 4.9 228.323 5.14933 229.159 5.648C230.01 6.132 230.655 6.78467 231.095 7.606C231.535 8.41267 231.755 9.28533 231.755 10.224ZM230.765 10.598C230.809 9.542 230.619 8.64733 230.193 7.914C229.783 7.18067 229.218 6.638 228.499 6.286C227.781 5.91933 227.003 5.736 226.167 5.736C225.331 5.736 224.554 5.91933 223.835 6.286C223.131 6.638 222.552 7.18067 222.097 7.914C221.657 8.64733 221.423 9.542 221.393 10.598H230.765ZM239.895 4.9C241.157 4.9 242.227 5.208 243.107 5.824C243.987 6.42533 244.603 7.20267 244.955 8.156V5.054H245.945V17.374C245.945 18.474 245.703 19.4347 245.219 20.256C244.735 21.092 244.083 21.73 243.261 22.17C242.44 22.6247 241.523 22.852 240.511 22.852C239.015 22.852 237.776 22.4927 236.793 21.774C235.811 21.0553 235.165 20.0873 234.857 18.87H235.847C236.141 19.8233 236.691 20.5787 237.497 21.136C238.304 21.708 239.309 21.994 240.511 21.994C241.347 21.994 242.103 21.8033 242.777 21.422C243.452 21.0553 243.98 20.52 244.361 19.816C244.757 19.1267 244.955 18.3127 244.955 17.374V13.876C244.603 14.8293 243.98 15.6213 243.085 16.252C242.205 16.868 241.142 17.176 239.895 17.176C238.781 17.176 237.783 16.9267 236.903 16.428C236.038 15.9147 235.356 15.196 234.857 14.272C234.373 13.3333 234.131 12.248 234.131 11.016C234.131 9.784 234.373 8.706 234.857 7.782C235.356 6.858 236.038 6.14667 236.903 5.648C237.783 5.14933 238.781 4.9 239.895 4.9ZM244.955 11.016C244.955 9.97467 244.735 9.058 244.295 8.266C243.87 7.45933 243.283 6.84333 242.535 6.418C241.787 5.978 240.951 5.758 240.027 5.758C239.059 5.758 238.209 5.97067 237.475 6.396C236.742 6.80667 236.17 7.408 235.759 8.2C235.349 8.992 235.143 9.93067 235.143 11.016C235.143 12.1013 235.349 13.04 235.759 13.832C236.17 14.624 236.742 15.2327 237.475 15.658C238.223 16.0833 239.074 16.296 240.027 16.296C240.951 16.296 241.787 16.0833 242.535 15.658C243.298 15.218 243.892 14.602 244.317 13.81C244.743 13.0033 244.955 12.072 244.955 11.016ZM250.056 2.392C249.821 2.392 249.623 2.31867 249.462 2.172C249.301 2.01067 249.22 1.798 249.22 1.534C249.22 1.28467 249.301 1.07933 249.462 0.918C249.623 0.756666 249.821 0.675999 250.056 0.675999C250.291 0.675999 250.489 0.756666 250.65 0.918C250.811 1.07933 250.892 1.28467 250.892 1.534C250.892 1.798 250.811 2.01067 250.65 2.172C250.489 2.31867 250.291 2.392 250.056 2.392ZM250.54 5.054V17H249.55V5.054H250.54ZM259.559 4.812C260.982 4.812 262.141 5.252 263.035 6.132C263.93 6.99733 264.377 8.288 264.377 10.004V17H263.409V10.07C263.409 8.64733 263.05 7.562 262.331 6.814C261.613 6.05133 260.637 5.67 259.405 5.67C258.115 5.67 257.081 6.08067 256.303 6.902C255.541 7.72333 255.159 8.94067 255.159 10.554V17H254.169V5.054H255.159V7.584C255.497 6.68933 256.054 6.00733 256.831 5.538C257.623 5.054 258.533 4.812 259.559 4.812ZM271.858 17.176C270.524 17.176 269.431 16.8827 268.58 16.296C267.744 15.7093 267.275 14.8733 267.172 13.788H268.184C268.258 14.5653 268.61 15.1813 269.24 15.636C269.886 16.0907 270.758 16.318 271.858 16.318C272.768 16.318 273.486 16.0907 274.014 15.636C274.557 15.1667 274.828 14.5947 274.828 13.92C274.828 13.4507 274.682 13.0693 274.388 12.776C274.11 12.468 273.758 12.2333 273.332 12.072C272.907 11.9107 272.328 11.7347 271.594 11.544C270.714 11.3093 270.003 11.082 269.46 10.862C268.918 10.6273 268.456 10.2827 268.074 9.828C267.693 9.37333 267.502 8.76467 267.502 8.002C267.502 7.44467 267.671 6.93133 268.008 6.462C268.346 5.978 268.815 5.59667 269.416 5.318C270.018 5.03933 270.7 4.9 271.462 4.9C272.709 4.9 273.714 5.21533 274.476 5.846C275.254 6.462 275.672 7.32 275.73 8.42H274.74C274.696 7.628 274.388 6.98267 273.816 6.484C273.244 5.98533 272.452 5.736 271.44 5.736C270.59 5.736 269.886 5.956 269.328 6.396C268.771 6.836 268.492 7.37133 268.492 8.002C268.492 8.55933 268.646 9.014 268.954 9.366C269.277 9.70333 269.666 9.96733 270.12 10.158C270.59 10.334 271.206 10.5247 271.968 10.73C272.804 10.95 273.472 11.17 273.97 11.39C274.484 11.5953 274.916 11.9033 275.268 12.314C275.62 12.71 275.796 13.2453 275.796 13.92C275.796 14.536 275.628 15.0933 275.29 15.592C274.953 16.0907 274.484 16.4793 273.882 16.758C273.281 17.0367 272.606 17.176 271.858 17.176ZM300.641 5.054L296.879 17H295.933L292.127 6.418L288.299 17H287.353L283.591 5.054H284.625L287.837 15.878L291.665 5.054H292.611L296.417 15.834L299.629 5.054H300.641ZM303.316 2.392C303.081 2.392 302.883 2.31867 302.722 2.172C302.561 2.01067 302.48 1.798 302.48 1.534C302.48 1.28467 302.561 1.07933 302.722 0.918C302.883 0.756666 303.081 0.675999 303.316 0.675999C303.551 0.675999 303.749 0.756666 303.91 0.918C304.071 1.07933 304.152 1.28467 304.152 1.534C304.152 1.798 304.071 2.01067 303.91 2.172C303.749 2.31867 303.551 2.392 303.316 2.392ZM303.8 5.054V17H302.81V5.054H303.8ZM308.903 5.912V13.81C308.903 14.69 309.064 15.2987 309.387 15.636C309.71 15.9587 310.282 16.12 311.103 16.12H312.445V17H310.949C309.908 17 309.138 16.758 308.639 16.274C308.155 15.7753 307.913 14.954 307.913 13.81V5.912H306.109V5.054H307.913V2.018H308.903V5.054H312.445V5.912H308.903ZM320.468 4.812C321.876 4.812 323.027 5.252 323.922 6.132C324.817 6.99733 325.264 8.288 325.264 10.004V17H324.296V10.07C324.296 8.64733 323.937 7.562 323.218 6.814C322.499 6.05133 321.524 5.67 320.292 5.67C319.001 5.67 317.967 6.08067 317.19 6.902C316.427 7.72333 316.046 8.94067 316.046 10.554V17H315.056V0.72H316.046V7.584C316.383 6.68933 316.948 6.00733 317.74 5.538C318.532 5.054 319.441 4.812 320.468 4.812ZM334.356 11.016C334.356 9.784 334.598 8.706 335.082 7.782C335.581 6.858 336.263 6.14667 337.128 5.648C338.008 5.14933 339.005 4.9 340.12 4.9C341.381 4.9 342.452 5.208 343.332 5.824C344.212 6.44 344.828 7.22467 345.18 8.178V5.054H346.17V17H345.18V13.854C344.828 14.822 344.205 15.6213 343.31 16.252C342.43 16.868 341.367 17.176 340.12 17.176C339.005 17.176 338.008 16.9267 337.128 16.428C336.263 15.9147 335.581 15.196 335.082 14.272C334.598 13.3333 334.356 12.248 334.356 11.016ZM345.18 11.016C345.18 9.97467 344.96 9.058 344.52 8.266C344.095 7.45933 343.508 6.84333 342.76 6.418C342.012 5.978 341.176 5.758 340.252 5.758C339.284 5.758 338.433 5.97067 337.7 6.396C336.967 6.80667 336.395 7.408 335.984 8.2C335.573 8.992 335.368 9.93067 335.368 11.016C335.368 12.1013 335.573 13.04 335.984 13.832C336.395 14.624 336.967 15.2327 337.7 15.658C338.448 16.0833 339.299 16.296 340.252 16.296C341.176 16.296 342.012 16.0833 342.76 15.658C343.523 15.218 344.117 14.602 344.542 13.81C344.967 13.0033 345.18 12.072 345.18 11.016ZM355.165 4.812C356.587 4.812 357.746 5.252 358.641 6.132C359.535 6.99733 359.983 8.288 359.983 10.004V17H359.015V10.07C359.015 8.64733 358.655 7.562 357.937 6.814C357.218 6.05133 356.243 5.67 355.011 5.67C353.72 5.67 352.686 6.08067 351.909 6.902C351.146 7.72333 350.765 8.94067 350.765 10.554V17H349.775V5.054H350.765V7.584C351.102 6.68933 351.659 6.00733 352.437 5.538C353.229 5.054 354.138 4.812 355.165 4.812ZM11.562 43.224C11.562 43.752 11.5473 44.148 11.518 44.412H1.2C1.22933 45.4827 1.464 46.3847 1.904 47.118C2.344 47.8513 2.92333 48.4013 3.642 48.768C4.36067 49.1347 5.14533 49.318 5.996 49.318C7.16933 49.318 8.152 49.032 8.944 48.46C9.736 47.8733 10.2347 47.0813 10.44 46.084H11.474C11.2393 47.3013 10.638 48.2913 9.67 49.054C8.702 49.802 7.47733 50.176 5.996 50.176C4.88133 50.176 3.884 49.9267 3.004 49.428C2.124 48.9293 1.43467 48.218 0.936 47.294C0.437333 46.3553 0.188 45.2627 0.188 44.016C0.188 42.7693 0.43 41.684 0.914 40.76C1.41267 39.836 2.102 39.132 2.982 38.648C3.862 38.1493 4.86667 37.9 5.996 37.9C7.14 37.9 8.13 38.1493 8.966 38.648C9.81667 39.132 10.462 39.7847 10.902 40.606C11.342 41.4127 11.562 42.2853 11.562 43.224ZM10.572 43.598C10.616 42.542 10.4253 41.6473 10 40.914C9.58933 40.1807 9.02467 39.638 8.306 39.286C7.58733 38.9193 6.81 38.736 5.974 38.736C5.138 38.736 4.36067 38.9193 3.642 39.286C2.938 39.638 2.35867 40.1807 1.904 40.914C1.464 41.6473 1.22933 42.542 1.2 43.598H10.572ZM18.602 48.922L23.002 38.054H24.058L19.108 50H18.074L13.124 38.054H14.202L18.602 48.922ZM36.9995 43.224C36.9995 43.752 36.9848 44.148 36.9555 44.412H26.6375C26.6668 45.4827 26.9015 46.3847 27.3415 47.118C27.7815 47.8513 28.3608 48.4013 29.0795 48.768C29.7982 49.1347 30.5828 49.318 31.4335 49.318C32.6068 49.318 33.5895 49.032 34.3815 48.46C35.1735 47.8733 35.6722 47.0813 35.8775 46.084H36.9115C36.6768 47.3013 36.0755 48.2913 35.1075 49.054C34.1395 49.802 32.9148 50.176 31.4335 50.176C30.3188 50.176 29.3215 49.9267 28.4415 49.428C27.5615 48.9293 26.8722 48.218 26.3735 47.294C25.8748 46.3553 25.6255 45.2627 25.6255 44.016C25.6255 42.7693 25.8675 41.684 26.3515 40.76C26.8502 39.836 27.5395 39.132 28.4195 38.648C29.2995 38.1493 30.3042 37.9 31.4335 37.9C32.5775 37.9 33.5675 38.1493 34.4035 38.648C35.2542 39.132 35.8995 39.7847 36.3395 40.606C36.7795 41.4127 36.9995 42.2853 36.9995 43.224ZM36.0095 43.598C36.0535 42.542 35.8628 41.6473 35.4375 40.914C35.0268 40.1807 34.4622 39.638 33.7435 39.286C33.0248 38.9193 32.2475 38.736 31.4115 38.736C30.5755 38.736 29.7982 38.9193 29.0795 39.286C28.3755 39.638 27.7962 40.1807 27.3415 40.914C26.9015 41.6473 26.6668 42.542 26.6375 43.598H36.0095ZM45.3815 37.812C46.8042 37.812 47.9628 38.252 48.8575 39.132C49.7522 39.9973 50.1995 41.288 50.1995 43.004V50H49.2315V43.07C49.2315 41.6473 48.8722 40.562 48.1535 39.814C47.4348 39.0513 46.4595 38.67 45.2275 38.67C43.9368 38.67 42.9028 39.0807 42.1255 39.902C41.3628 40.7233 40.9815 41.9407 40.9815 43.554V50H39.9915V38.054H40.9815V40.584C41.3188 39.6893 41.8762 39.0073 42.6535 38.538C43.4455 38.054 44.3548 37.812 45.3815 37.812ZM60.8975 41.2C61.2642 40.232 61.8875 39.44 62.7675 38.824C63.6475 38.208 64.7108 37.9 65.9575 37.9C67.0722 37.9 68.0622 38.1493 68.9275 38.648C69.8075 39.1467 70.4895 39.858 70.9735 40.782C71.4722 41.706 71.7215 42.784 71.7215 44.016C71.7215 45.248 71.4722 46.3333 70.9735 47.272C70.4895 48.196 69.8075 48.9147 68.9275 49.428C68.0622 49.9267 67.0722 50.176 65.9575 50.176C64.7108 50.176 63.6402 49.868 62.7455 49.252C61.8655 48.636 61.2495 47.844 60.8975 46.876V50H59.9075V33.72H60.8975V41.2ZM70.7095 44.016C70.7095 42.9307 70.5042 41.992 70.0935 41.2C69.6828 40.408 69.1035 39.8067 68.3555 39.396C67.6222 38.9707 66.7715 38.758 65.8035 38.758C64.8795 38.758 64.0435 38.978 63.2955 39.418C62.5475 39.8433 61.9608 40.4593 61.5355 41.266C61.1102 42.058 60.8975 42.9747 60.8975 44.016C60.8975 45.072 61.1102 46.0033 61.5355 46.81C61.9608 47.602 62.5475 48.218 63.2955 48.658C64.0435 49.0833 64.8795 49.296 65.8035 49.296C66.7715 49.296 67.6222 49.0833 68.3555 48.658C69.1035 48.2327 69.6828 47.624 70.0935 46.832C70.5042 46.04 70.7095 45.1013 70.7095 44.016ZM85.4683 43.224C85.4683 43.752 85.4536 44.148 85.4243 44.412H75.1063C75.1356 45.4827 75.3703 46.3847 75.8102 47.118C76.2503 47.8513 76.8296 48.4013 77.5483 48.768C78.2669 49.1347 79.0516 49.318 79.9023 49.318C81.0756 49.318 82.0583 49.032 82.8503 48.46C83.6423 47.8733 84.1409 47.0813 84.3463 46.084H85.3803C85.1456 47.3013 84.5443 48.2913 83.5763 49.054C82.6083 49.802 81.3836 50.176 79.9023 50.176C78.7876 50.176 77.7903 49.9267 76.9103 49.428C76.0303 48.9293 75.3409 48.218 74.8423 47.294C74.3436 46.3553 74.0943 45.2627 74.0943 44.016C74.0943 42.7693 74.3363 41.684 74.8203 40.76C75.3189 39.836 76.0083 39.132 76.8883 38.648C77.7683 38.1493 78.7729 37.9 79.9023 37.9C81.0463 37.9 82.0363 38.1493 82.8723 38.648C83.7229 39.132 84.3683 39.7847 84.8083 40.606C85.2483 41.4127 85.4683 42.2853 85.4683 43.224ZM84.4783 43.598C84.5223 42.542 84.3316 41.6473 83.9062 40.914C83.4956 40.1807 82.9309 39.638 82.2123 39.286C81.4936 38.9193 80.7163 38.736 79.8803 38.736C79.0443 38.736 78.2669 38.9193 77.5483 39.286C76.8443 39.638 76.2649 40.1807 75.8102 40.914C75.3703 41.6473 75.1356 42.542 75.1063 43.598H84.4783ZM89.9343 38.912V46.81C89.9343 47.69 90.0956 48.2987 90.4183 48.636C90.7409 48.9587 91.3129 49.12 92.1343 49.12H93.4763V50H91.9803C90.9389 50 90.1689 49.758 89.6703 49.274C89.1863 48.7753 88.9443 47.954 88.9443 46.81V38.912H87.1403V38.054H88.9443V35.018H89.9343V38.054H93.4763V38.912H89.9343ZM97.5612 38.912V46.81C97.5612 47.69 97.7225 48.2987 98.0452 48.636C98.3679 48.9587 98.9399 49.12 99.7612 49.12H101.103V50H99.6072C98.5659 50 97.7959 49.758 97.2972 49.274C96.8132 48.7753 96.5712 47.954 96.5712 46.81V38.912H94.7672V38.054H96.5712V35.018H97.5612V38.054H101.103V38.912H97.5612ZM114.472 43.224C114.472 43.752 114.457 44.148 114.428 44.412H104.11C104.139 45.4827 104.374 46.3847 104.814 47.118C105.254 47.8513 105.833 48.4013 106.552 48.768C107.271 49.1347 108.055 49.318 108.906 49.318C110.079 49.318 111.062 49.032 111.854 48.46C112.646 47.8733 113.145 47.0813 113.35 46.084H114.384C114.149 47.3013 113.548 48.2913 112.58 49.054C111.612 49.802 110.387 50.176 108.906 50.176C107.791 50.176 106.794 49.9267 105.914 49.428C105.034 48.9293 104.345 48.218 103.846 47.294C103.347 46.3553 103.098 45.2627 103.098 44.016C103.098 42.7693 103.34 41.684 103.824 40.76C104.323 39.836 105.012 39.132 105.892 38.648C106.772 38.1493 107.777 37.9 108.906 37.9C110.05 37.9 111.04 38.1493 111.876 38.648C112.727 39.132 113.372 39.7847 113.812 40.606C114.252 41.4127 114.472 42.2853 114.472 43.224ZM113.482 43.598C113.526 42.542 113.335 41.6473 112.91 40.914C112.499 40.1807 111.935 39.638 111.216 39.286C110.497 38.9193 109.72 38.736 108.884 38.736C108.048 38.736 107.271 38.9193 106.552 39.286C105.848 39.638 105.269 40.1807 104.814 40.914C104.374 41.6473 104.139 42.542 104.11 43.598H113.482ZM118.454 40.518C118.747 39.638 119.268 38.9707 120.016 38.516C120.764 38.0467 121.717 37.812 122.876 37.812V38.846H122.546C121.373 38.846 120.397 39.1833 119.62 39.858C118.843 40.518 118.454 41.6033 118.454 43.114V50H117.464V38.054H118.454V40.518ZM135.347 50.176C134.012 50.176 132.919 49.8827 132.069 49.296C131.233 48.7093 130.763 47.8733 130.661 46.788H131.673C131.746 47.5653 132.098 48.1813 132.729 48.636C133.374 49.0907 134.247 49.318 135.347 49.318C136.256 49.318 136.975 49.0907 137.503 48.636C138.045 48.1667 138.317 47.5947 138.317 46.92C138.317 46.4507 138.17 46.0693 137.877 45.776C137.598 45.468 137.246 45.2333 136.821 45.072C136.395 44.9107 135.816 44.7347 135.083 44.544C134.203 44.3093 133.491 44.082 132.949 43.862C132.406 43.6273 131.944 43.2827 131.563 42.828C131.181 42.3733 130.991 41.7647 130.991 41.002C130.991 40.4447 131.159 39.9313 131.497 39.462C131.834 38.978 132.303 38.5967 132.905 38.318C133.506 38.0393 134.188 37.9 134.951 37.9C136.197 37.9 137.202 38.2153 137.965 38.846C138.742 39.462 139.16 40.32 139.219 41.42H138.229C138.185 40.628 137.877 39.9827 137.305 39.484C136.733 38.9853 135.941 38.736 134.929 38.736C134.078 38.736 133.374 38.956 132.817 39.396C132.259 39.836 131.981 40.3713 131.981 41.002C131.981 41.5593 132.135 42.014 132.443 42.366C132.765 42.7033 133.154 42.9673 133.609 43.158C134.078 43.334 134.694 43.5247 135.457 43.73C136.293 43.95 136.96 44.17 137.459 44.39C137.972 44.5953 138.405 44.9033 138.757 45.314C139.109 45.71 139.285 46.2453 139.285 46.92C139.285 47.536 139.116 48.0933 138.779 48.592C138.441 49.0907 137.972 49.4793 137.371 49.758C136.769 50.0367 136.095 50.176 135.347 50.176ZM143.774 38.912V46.81C143.774 47.69 143.935 48.2987 144.258 48.636C144.581 48.9587 145.153 49.12 145.974 49.12H147.316V50H145.82C144.779 50 144.009 49.758 143.51 49.274C143.026 48.7753 142.784 47.954 142.784 46.81V38.912H140.98V38.054H142.784V35.018H143.774V38.054H147.316V38.912H143.774ZM155.185 50.176C154.07 50.176 153.066 49.9267 152.171 49.428C151.276 48.9293 150.572 48.218 150.059 47.294C149.56 46.3553 149.311 45.2627 149.311 44.016C149.311 42.784 149.568 41.706 150.081 40.782C150.594 39.8433 151.298 39.132 152.193 38.648C153.102 38.1493 154.114 37.9 155.229 37.9C156.344 37.9 157.348 38.1493 158.243 38.648C159.138 39.132 159.834 39.836 160.333 40.76C160.846 41.684 161.103 42.7693 161.103 44.016C161.103 45.2627 160.846 46.3553 160.333 47.294C159.82 48.218 159.108 48.9293 158.199 49.428C157.304 49.9267 156.3 50.176 155.185 50.176ZM155.185 49.296C156.05 49.296 156.857 49.1053 157.605 48.724C158.368 48.328 158.976 47.734 159.431 46.942C159.886 46.15 160.113 45.1747 160.113 44.016C160.113 42.872 159.886 41.904 159.431 41.112C158.976 40.32 158.375 39.7333 157.627 39.352C156.879 38.956 156.072 38.758 155.207 38.758C154.342 38.758 153.535 38.956 152.787 39.352C152.054 39.7333 151.46 40.32 151.005 41.112C150.55 41.904 150.323 42.872 150.323 44.016C150.323 45.1747 150.543 46.15 150.983 46.942C151.438 47.734 152.032 48.328 152.765 48.724C153.513 49.1053 154.32 49.296 155.185 49.296ZM165.097 40.518C165.39 39.638 165.911 38.9707 166.659 38.516C167.407 38.0467 168.36 37.812 169.519 37.812V38.846H169.189C168.015 38.846 167.04 39.1833 166.263 39.858C165.485 40.518 165.097 41.6033 165.097 43.114V50H164.107V38.054H165.097V40.518ZM181.126 38.054L174.174 55.61H173.162L175.384 50L170.368 38.054H171.446L175.934 48.9L180.114 38.054H181.126ZM183.181 50.066C182.932 50.066 182.727 49.9853 182.565 49.824C182.404 49.6627 182.323 49.4573 182.323 49.208C182.323 48.9587 182.404 48.7533 182.565 48.592C182.727 48.4307 182.932 48.35 183.181 48.35C183.416 48.35 183.614 48.4307 183.775 48.592C183.937 48.7533 184.017 48.9587 184.017 49.208C184.017 49.4573 183.937 49.6627 183.775 49.824C183.614 49.9853 183.416 50.066 183.181 50.066Z" fill="white"/>
</svg>
