<svg width="45" height="35" viewBox="0 0 45 35" fill="none" xmlns="http://www.w3.org/2000/svg">
<path d="M26.3514 23.9044C26.3514 16.9145 28.6486 10.5015 33.2432 4.66529C36.1487 1.13642 38.4797 -0.390499 40.2365 0.0845411C41.8581 0.695307 42.6689 1.61146 42.6689 2.83299C42.6689 3.98666 42.1284 5.20819 41.0473 6.49758C40.0338 7.78698 39.223 8.83885 38.6149 9.65321C38.0068 10.4676 37.5 11.3498 37.0946 12.2999C36.1487 14.2 35.6757 16.5074 35.6757 19.2219C37.2973 18.7468 38.9189 18.9504 40.5405 19.8326C43.5135 21.5292 45 23.7008 45 26.3475C45 28.9263 44.1892 31.03 42.5676 32.6587C41.0135 34.2196 38.8514 35 36.0811 35C33.3108 35 30.9797 33.9481 29.0878 31.8444C27.2635 29.6728 26.3514 27.0261 26.3514 23.9044ZM0 23.9044C0 16.6431 2.26351 10.23 6.79054 4.66529C10.2365 0.52565 13.1081 -0.729814 15.4054 0.898896C15.8784 1.23821 16.1149 1.78111 16.1149 2.52761C16.1149 3.88486 15.6081 5.20819 14.5946 6.49758C13.6486 7.78698 12.8716 8.83885 12.2635 9.65321C11.6554 10.4676 11.1486 11.3498 10.7432 12.2999C9.7973 14.2 9.32432 16.5074 9.32432 19.2219C10.9459 18.7468 12.5338 18.9504 14.0878 19.8326C16.9932 21.5292 18.4459 23.7008 18.4459 26.3475C18.4459 28.9263 17.6689 31.03 16.1149 32.6587C14.5608 34.2196 12.3986 35 9.62838 35C6.85811 35 4.56081 33.9481 2.73649 31.8444C0.912162 29.6728 0 27.0261 0 23.9044Z" fill="#0C3054"/>
</svg>
